<?xml version="1.0" encoding="UTF-8"?>
<!DOCTYPE svg PUBLIC "-//W3C//DTD SVG 1.1//EN" "http://www.w3.org/Graphics/SVG/1.1/DTD/svg11.dtd">
<!-- Creator: CorelDRAW 2018 (64-Bit) -->
<?xml-stylesheet href="ad_img.css" type="text/css"?>
<svg xmlns="http://www.w3.org/2000/svg" xml:space="preserve" width="8.26772in" height="11.6929in" version="1.1" style="shape-rendering:geometricPrecision; text-rendering:geometricPrecision; image-rendering:optimizeQuality; fill-rule:evenodd; clip-rule:evenodd"
viewBox="0 0 8267.72 11692.91"
 xmlns:xlink="http://www.w3.org/1999/xlink">
 <g id="Layer_x0020_1">
  <metadata id="CorelCorpID_0Corel-Layer"/>
  <path class="fil0" d="M1667.93 5465.47c26.31,473.27 546.25,1012.3 770.39,1181.7 505.66,382.17 368.59,934.94 345.44,1546.08l571.44 3.16c-41.38,-631.24 80.75,-1144.04 460.47,-1409.09 132.32,-92.37 499.57,-262.97 493.15,-434.49 -2.35,-62.82 -239.11,-503.65 -134.96,-748.14 151.09,-22.04 159.35,84.03 255.16,115.27 103.33,33.69 198.86,-49.86 292.89,-80.26 65.62,-21.21 276.39,-46.7 311.29,-70.73 94.31,-64.93 16.88,-193.78 169.21,-211.3 68.51,13.21 633.17,759.6 136.38,1130.37 -197.85,147.67 -306.41,150.3 -371.43,453.52 -69.86,325.76 35.13,470.74 76.48,742.64 -322.61,33.12 -660.12,177.22 -652.72,507.89l1457.38 5.74c296.05,0 571,-378.43 683.32,-582.63 241.75,-439.53 290.51,-60.5 682.31,-577 629.82,-830.27 456.59,-1794.31 158.48,-1823.48 -111.01,251.46 44.58,363.9 -195.3,908.53 -86.52,196.41 -286.4,607 -483.92,627.66 -29.92,-78.06 -52.79,-201.2 -80.61,-285.77 -179.37,-545.36 -419.83,-705.07 -859.45,-1012.31 -798.52,-558.07 -1310.68,-633.37 -1984.99,-997.44 -134.23,-72.47 -381.03,-206.39 -436.33,-321 305.93,70.47 608.33,322.48 873.74,44.48 110.43,-115.68 145.41,-330.72 -14.48,-410.92 -96.55,-48.43 -151.22,-18.59 -262,-35.86 -466.29,-72.69 -743.48,-309.7 -933.43,-199.65 -79.75,46.2 -98.57,80.37 -103.73,201.13 -18.41,430.69 259.7,578.36 462.36,755.21 155.74,135.9 462.42,403.35 467.49,736.24 11.19,734.5 -1303.81,1295.92 -2008.78,423.87 -50.15,-62.03 -100.67,-150.03 -145.23,-183.42z"/>
  <path class="fil0" d="M1377.83 3929.11c-209.58,65.77 -516.3,393.07 -640.34,575.13 -177.02,259.81 -145.7,754.31 151.17,844.56 184.06,55.95 346.66,-52.58 418.77,-158.58 66.73,-98.09 105.35,-332.69 144.07,-469.87 54.96,-194.69 351.11,-924.55 -73.67,-791.25z"/>
  <path class="fil0" d="M3060.93 5133.26c-178.86,34.98 -413.7,132.33 -464.28,254.14 -83.29,200.59 152.77,335.44 338.59,347.54 524.72,34.17 675.47,-709.2 125.69,-601.68z"/>
  <path class="fil0" d="M2805.73 4463.63c-192.12,89.05 -64.04,330.13 112.52,266.46 167.96,-60.57 69.5,-350.82 -112.52,-266.46z"/>
  <path class="fil0" d="M2117.99 4638.83c-183.15,82.78 -56.06,346.59 124.67,261.85 156.02,-73.16 56.6,-343.78 -124.67,-261.85z"/>
  <path class="fil0" d="M4692.77 5979.7c-60.72,27.44 -18.58,114.9 41.33,86.81 51.72,-24.25 18.76,-113.96 -41.33,-86.81z"/>
  <path class="fil0" d="M5085.15 5964.71c61.72,-27.89 18.89,-116.8 -42.02,-88.24 -52.57,24.65 -19.07,115.85 42.02,88.24z"/>
 </g>
</svg>
