<?xml version="1.0" encoding="UTF-8"?>
<!DOCTYPE svg PUBLIC "-//W3C//DTD SVG 1.1//EN" "http://www.w3.org/Graphics/SVG/1.1/DTD/svg11.dtd">
<!-- Creator: CorelDRAW 2018 (64-Bit) -->
<svg xmlns="http://www.w3.org/2000/svg" xml:space="preserve" width="7.87402in" height="7.87402in" version="1.1" style="shape-rendering:geometricPrecision; text-rendering:geometricPrecision; image-rendering:optimizeQuality; fill-rule:evenodd; clip-rule:evenodd"
viewBox="0 0 7874.02 7874.02"
 xmlns:xlink="http://www.w3.org/1999/xlink">
 <g id="Layer_x0020_1">
  <path class="fil0" fill="#AD2A26" d="M5785.71 5889.42c35.3,0 67.3,14.33 90.44,37.48 23.12,23.29 37.48,55.26 37.48,90.44 0,35.3 -14.33,67.3 -37.48,90.44 -23.15,23.15 -55.14,37.48 -90.44,37.48 -35.19,0 -67.16,-14.36 -90.36,-37.57 -23.23,-23.06 -37.57,-55.06 -37.57,-90.36 0,-35.14 14.33,-67.08 37.48,-90.29l0.16 -0.16c23.21,-23.15 55.15,-37.48 90.29,-37.48zm-3902.56 -257.98l229.19 0c29.42,0 56.08,11.94 75.37,31.23l0 0.16c19.28,19.29 31.23,45.91 31.23,75.22l0 135.25 112.35 0c29.42,0 56.08,11.94 75.37,31.23l0 0.16c19.28,19.29 31.23,45.91 31.23,75.22l0 229.19c0,29.31 -11.95,55.93 -31.23,75.22l-0.16 0.16c-19.29,19.28 -45.91,31.23 -75.22,31.23l-112.35 0 0 103.83c0,29.31 -11.95,55.93 -31.23,75.22l-0.15 0.16c-19.29,19.28 -45.91,31.23 -75.22,31.23l-229.19 0c-29.31,0 -55.93,-11.95 -75.22,-31.23l-0.16 0c-19.29,-19.29 -31.23,-45.95 -31.23,-75.37l0 -103.83 -126.74 0c-29.31,0 -55.93,-11.96 -75.22,-31.23l-0.16 0c-19.29,-19.29 -31.23,-45.96 -31.23,-75.37l0 -229.19c0,-29.42 11.94,-56.08 31.23,-75.37 19.29,-19.29 45.96,-31.23 75.37,-31.23l126.74 0 0 -135.25c0,-29.42 11.94,-56.08 31.23,-75.37 19.29,-19.29 45.95,-31.23 75.37,-31.23zm122.58 213.21l-15.98 0 0 135.25c0,29.31 -11.95,55.93 -31.23,75.22l-0.16 0.16c-19.29,19.28 -45.91,31.23 -75.21,31.23l-126.74 0 0 15.98 126.74 0c29.42,0 56.08,11.94 75.37,31.23l0 0.16c19.28,19.29 31.23,45.91 31.23,75.22l0 103.84 15.98 0 0 -103.84c0,-29.42 11.94,-56.08 31.23,-75.37 19.29,-19.29 45.95,-31.23 75.37,-31.23l112.35 0 0 -15.98 -112.35 0c-29.31,0 -55.93,-11.96 -75.22,-31.23l-0.16 0c-19.29,-19.29 -31.23,-45.96 -31.23,-75.37l0 -135.25zm-688.75 1002.18l2656.24 0c-14.5,-23.07 -29.44,-47.85 -44.83,-74.42 -29.94,-51.68 -61.48,-110.07 -94.65,-175.66 -11.69,-23.11 -18.46,-50.39 -20.73,-80.88l0 -0.17c-2.14,-28.97 -0.22,-61.68 5.38,-97.09 10.42,-65.99 34.04,-146.18 67.01,-230.64 32.56,-83.37 74.59,-171.93 122.33,-255.91 51.73,-91.01 110.75,-177.5 172.63,-247.85 57.2,-65.04 117.64,-117.16 178.26,-147.8 14.43,-7.3 28.69,-13.44 42.69,-18.26l0.05 0.16c5.22,-1.8 10.36,-3.44 15.43,-4.93 16.37,-57.99 47.07,-112.37 89.91,-161.93 49.34,-57.07 114.99,-107.9 193.34,-150.5l23.2 -12.17c-105.98,-80.38 -221.91,-144 -344.9,-189.01 -141.87,-51.93 -293.54,-79.28 -450.51,-79.28l-150.67 0 -548.86 1024.95c-10.41,19.93 -25.88,34.71 -43.63,44.15l-0.07 -0.13c-15.42,8.22 -32.67,12.44 -49.86,12.51 -17.31,0.1 -34.65,-3.95 -50.19,-12.12 -17.72,-9.34 -33.19,-23.98 -43.86,-44l-549.09 -1025.36 -86.78 0c-363.57,0 -694.2,148.84 -933.92,388.57 -239.73,239.72 -388.56,570.35 -388.56,933.92l0 369.19c0,64.48 26.42,123.17 68.94,165.73 42.64,42.5 101.31,68.94 165.74,68.94zm3477.98 0l6.96 0 -19.29 55.34c-8.54,37.88 -16.78,73.8 -24.15,103.55 -7.92,32.02 -15.36,59.11 -21.91,77.84 -2.04,5.86 -3.59,11.89 -4.62,17.99l0 0.17c-1,5.92 -1.5,12.13 -1.5,18.53 0,18.12 4.65,36.33 12.85,54.02 9.57,20.66 23.98,40.73 41.61,59.39 19.06,20.17 41.36,38.27 65.33,53.61 24.92,15.93 51.79,29.03 78.93,38.53 15.16,5.3 30.25,9.39 44.88,12.1 13.54,2.5 27.19,3.83 40.6,3.83 35.78,0 69.28,-4.01 98.36,-12.43 25.9,-7.48 48.63,-18.5 66.54,-33.32 13.97,-11.56 25.21,-26.13 32.72,-43.93 1.8,-4.28 3.42,-8.8 4.82,-13.54 -99.61,-62.05 -271.74,-170.71 -271.74,-285.86 0,-70.94 11.42,-126.01 32.8,-169.33 22.71,-45.99 55.96,-77.83 98.18,-100.3 36.42,-19.39 75.52,-29.01 117.96,-33.69 40.64,-4.47 82.51,-4.51 128.15,-4.51 45.63,0 87.51,0.04 128.15,4.51 42.45,4.68 81.54,14.3 117.96,33.69 42.22,22.47 75.47,54.31 98.17,100.3 21.39,43.31 32.81,98.39 32.81,169.33 0,113.52 -163.23,222.52 -257.13,284.61 1.57,6.55 3.47,12.69 5.68,18.42 7,18.12 17.21,32.61 29.98,43.75l0.08 -0.09c15.68,13.66 35.94,23.86 59.57,30.8 26.78,7.87 58.12,11.6 92.54,11.6 13.43,0 27.06,-1.33 40.6,-3.83 14.63,-2.71 29.72,-6.8 44.88,-12.1 27.13,-9.49 54,-22.59 78.9,-38.51 23.99,-15.35 46.28,-33.46 65.35,-53.64 17.63,-18.66 32.04,-38.74 41.61,-59.39 8.2,-17.69 12.85,-35.89 12.85,-54 0,-6.39 -0.5,-12.61 -1.5,-18.53l0 -0.17c-1.03,-6.09 -2.57,-12.13 -4.62,-17.99 -7.99,-22.83 -17.07,-56.78 -26.65,-96.27 -9.54,-39.29 -19.39,-82.94 -29.2,-126.56l-19.31 -84.74c-6.28,-27.04 -12.1,-51.39 -16.98,-70.41l-3.41 -9.45c-2.65,-8 -5.09,-16.38 -7.2,-24.93 -2,-7.99 -3.52,-15.75 -4.48,-22.99l0 -0.17c-3.28,-25.23 2.7,-50.22 15.83,-70.82 13,-20.4 32.85,-36.5 57.45,-44.28 27.86,-8.84 56.75,-5.49 80.87,7.02 24.25,12.58 43.72,34.34 52.56,62.27l5.97 19.98 5.69 20.94c4.23,10.69 9.59,22.54 15.74,34.52l2.42 4.47c8.44,-12.7 16.3,-25.96 22.82,-38.41 7.13,-13.44 11.98,-24.65 13.37,-31.23 1.98,-9.44 3.94,-27.66 5.89,-50.61 2.27,-26.83 4.11,-53.81 5.98,-81.58 2.89,-43.04 5.93,-87.81 10.25,-128.27 4.48,-42.09 10.48,-78.89 19.34,-103.23 9.98,-27.54 30.27,-48.48 54.94,-60.01 24.66,-11.54 53.7,-13.68 81.23,-3.71 23.38,8.47 42.03,24.38 54.17,44.09 12.45,20.15 18.12,44.23 15.26,68.33 -10.26,86.88 -16.03,205.81 -11.53,320.65 3.6,91.73 13.65,180.56 33,247.53 6,20.75 12.4,38.28 19.12,51.41l3.5 6.45 3.6 -2.39c32.41,-22.09 72.16,-66.03 120.47,-137.21 46.44,-68.43 100,-161.26 161.57,-282.96 0.35,-0.7 -0.56,-1.72 -0.59,-6.83 -0.08,-10.18 -1.5,-23.69 -4.05,-39.9 -8.14,-51.63 -28.26,-117.5 -56.97,-189.17 -29.19,-72.89 -66.9,-150.81 -109.65,-225.09 -43.89,-76.29 -92.73,-148.27 -142.43,-206.03 -42.74,-49.48 -85.14,-87.65 -124.13,-107.37 -9.35,-4.74 -17.95,-8.09 -25.56,-9.8 -5.64,-1.27 -10.49,-1.66 -14.39,-1.05 -29.02,4.5 -57.12,-3.19 -79.01,-19.22 -14.91,-10.92 -27.02,-25.69 -34.65,-43.08l-9.17 0 0 -42.64c0,-38.26 -15.79,-76.2 -44.37,-112.06 -32.41,-40.67 -80.68,-78.45 -141.02,-111.26 -67.86,-36.88 -149.67,-66.7 -241.23,-87.12 -88.55,-19.75 -186.56,-30.68 -290.25,-30.68 -40.29,0 -79.61,1.66 -117.72,4.82 -39.26,3.26 -77.32,8.12 -113.83,14.39l-108.36 23.78c-35.86,9.78 -69.94,20.98 -101.88,33.47 -32.41,12.68 -62.43,26.52 -89.69,41.34 -60.34,32.8 -108.6,70.59 -141,111.24 -28.59,35.87 -44.37,73.81 -44.37,112.07 0,29.31 -11.96,55.93 -31.23,75.22l-0.16 0.16c-19.29,19.28 -45.91,31.23 -75.22,31.23 -3.13,0 -6.96,-0.26 -11.33,-0.72l-8.18 -1.23c-3.49,-0.06 -7.67,0.52 -12.37,1.69 -7.07,1.75 -14.94,4.87 -23.39,9.14 -38.5,19.46 -80.16,57.16 -121.96,106.13 -48.65,57.04 -96.6,128.51 -139.82,204.54 -41.93,73.76 -78.96,151.35 -107.77,224.26 -28.45,72 -48.42,138.1 -56.58,189.85 -2.67,16.97 -4.16,31.19 -4.24,41.92 -0.05,5.58 -0.62,7.56 -0.4,7.99 61.57,121.69 115.13,214.53 161.58,282.95 48.3,71.18 88.06,115.11 120.46,137.21l3.6 2.38 3.49 -6.44c6.73,-13.14 13.14,-30.67 19.13,-51.41 19.36,-67.01 29.41,-155.92 33,-247.72 4.48,-114.75 -1.32,-233.6 -11.64,-320.43l0 -0.16c-3.41,-28.98 5.37,-56.77 22.29,-78.21 16.91,-21.44 41.94,-36.45 70.98,-39.87l0.16 0c26.22,-3.08 51.54,3.82 72.02,17.74 20.22,13.73 35.68,34.3 42.66,58.78 7.8,24.55 13.23,60.47 17.44,101.21 4.09,39.76 6.98,82.31 9.74,123.3 1.87,27.82 3.71,54.97 5.98,81.58 1.94,22.95 3.9,41.17 5.89,50.61 1.39,6.59 6.24,17.79 13.3,31.27l6.88 12.39 8.34 -33.24c4.51,-17.59 8.63,-32.69 12.22,-44.47 6.56,-25.84 22.54,-47.5 43.67,-61.76 20.74,-14.08 46.64,-20.82 73.52,-17.21 29.08,3.9 53.86,19.23 70.35,40.85 16.47,21.59 24.74,49.54 20.83,78.66 -1.83,13.66 -5.85,33.59 -11.48,55.73 -4.51,17.57 -10.43,38.13 -17.61,59.9 -10.3,44.22 -17.38,75.93 -24.45,107.72l-1 4.48zm-277.17 255.85l-87.41 0 -5.61 4.18c-35.31,25.25 -74.35,38.04 -117.33,35.68 -35.92,-1.98 -73.58,-14.73 -112.89,-39.86l-2877.57 0c-135,0 -257.65,-55.15 -346.52,-144.01 -88.86,-88.86 -144.02,-211.52 -144.02,-346.52l0 -369.19c0,-434.15 177.53,-828.75 463.55,-1114.79 286.04,-286.02 680.65,-463.55 1114.79,-463.55l1523.02 0c206.63,0 406.82,39.35 591.94,114.16 178.67,72.21 343.11,177.42 485.54,312.13 47.73,-10.39 97.61,-18.61 149.18,-24.43 58.23,-6.57 118.03,-10.01 178.64,-10.01 119.54,0 234.34,13.22 339.71,37.13 109.83,24.93 209.38,61.67 293.37,107.33 78.36,42.61 144,93.43 193.35,150.52 42.85,49.54 73.54,103.91 89.9,161.9 5.22,1.51 10.52,3.19 15.86,5.04l0.05 -0.16c14.14,4.87 28.59,11.07 43.2,18.47 60.71,30.71 121.73,83.16 179.74,148.67 62.77,70.87 122.65,157.71 175.1,248.85 48.89,84.97 91.79,173.99 124.75,257.22 33.41,84.4 57.3,164.51 67.69,230.33 5.48,34.7 7.35,66.77 5.19,95.23 -2.27,30 -8.98,56.88 -20.54,79.74 -68.18,134.77 -129.86,239.79 -185.53,319.53 -62.08,88.92 -117.4,147.13 -166.46,180.59 -42.51,29 -83.11,43.56 -121.71,45.69 -42.98,2.36 -82.02,-10.43 -117.33,-35.68 -26.08,-18.66 -48.08,-44.08 -66.39,-74.79 -18.33,-30.74 -33.12,-67.03 -44.74,-107.27 -2.8,-9.73 -5.42,-19.51 -7.82,-29.3 -14.65,11.69 -29.95,21.19 -45.57,27.69l9.32 38.01c5.77,22.78 10.84,41.1 14.8,52.39 6.3,18.01 10.93,35.72 13.94,53.04 3.17,18.25 4.7,36.15 4.7,53.61 0,47.54 -10.63,93.21 -29.42,135.93 -19.85,44.97 -48.61,86.46 -83.35,123.21 -30.81,32.61 -66.62,61.76 -104.98,86.36 -39.21,25.15 -81.49,45.77 -124.23,60.74 -19.85,6.94 -39.82,12.7 -59.63,17.15 -14.56,3.28 -29.25,5.87 -43.91,7.74 -12.85,11.64 -27.53,22.6 -43.66,32.61 -20.86,12.96 -44.42,24.73 -69.7,34.72 -35.9,14.18 -78.05,26.92 -122.32,35.9 -39.89,8.08 -80.75,12.99 -119.38,12.99l-42.64 0 0 -2.13c-27.27,-2.09 -54.55,-5.97 -80.93,-11.17 -41.34,-8.16 -81.36,-19.61 -116.44,-32.55 -27.64,-10.19 -53.24,-22.28 -75.71,-35.59 -18.06,-10.72 -34.29,-22.4 -48.19,-34.72 -14.72,-1.86 -29.47,-4.47 -44.13,-7.76 -20.13,-4.56 -40.18,-10.33 -59.81,-17.19 -42.74,-14.96 -85.03,-35.59 -124.24,-60.74 -38.35,-24.61 -74.15,-53.76 -104.96,-86.35 -34.86,-36.88 -63.63,-78.37 -83.35,-123.21 -18.78,-42.73 -29.42,-88.41 -29.42,-135.94 0,-5.7 0.18,-11.57 0.54,-17.56zm-232.97 -4594.8l-7.48 -631.85 -0.92 0 0 -42.64c0,-130.33 -30.61,-255.39 -85.45,-370.02 -57.81,-120.81 -142.55,-230.44 -246.83,-322.86 -106.45,-94.34 -233.09,-170.75 -372.25,-222.98 -133.97,-50.28 -279.82,-78.18 -430.75,-78.18 -151.25,0 -296.98,27.3 -430.59,76.71 -138.32,51.15 -263.6,125.89 -368.48,218.41 -102.71,90.61 -186,198.41 -242.8,317.75 -54.02,113.52 -84.07,237.75 -84.07,367.84 0,3.76 -0.24,7.71 -0.7,11.83l-22.19 674.44c9.78,-0.58 19.51,-0.88 29.14,-0.88 29.42,0 56.08,11.94 75.37,31.23l0 0.16c10.2,10.2 18.35,22.46 23.76,36.08 111.35,-38.3 219.75,-78.74 325.56,-121.01 121.24,-48.44 239.84,-99.61 356.17,-153 128.19,-58.85 254.02,-120.69 377.93,-184.78 124.76,-64.54 245.37,-130.21 362.91,-196.61 23.36,-13.78 50.29,-17.62 75.34,-12.4 24.81,5.19 47.92,19.29 64.08,41.49 74.38,102.04 157.54,206.76 250.9,299.87 91.93,91.69 193.69,171.89 306.5,226.44l0.17 0c12.55,6.11 23.89,14.85 33.36,25.59 2.61,2.79 4.98,5.83 7.2,8.99l4.13 0.38zm-2507.24 63.1l24.52 -750.93c-0.12,-161.57 36.94,-315.66 103.54,-456.31 69.31,-146.39 170.74,-278.1 295.69,-388.33 124.42,-109.76 272.31,-198.26 434.97,-258.63 157.27,-58.38 328.17,-90.64 504.84,-90.64 176.5,0 347.65,32.93 505.4,92.27 163.55,61.53 312.66,151.64 438.34,263.03 126.34,111.97 229.15,245.48 299.5,393.26 67.59,141.87 105.26,296.91 105.26,458.69l0 34.2 8.46 714.19c66.54,42.41 120.87,99.61 159.5,165.98 42.56,73.1 66.14,157.3 66.14,245.04 0,121.82 -45.26,234.51 -120.7,320.8 -69.55,79.56 -164.86,136.59 -274.08,157.6l-5.09 17.02c-29.65,99.54 -60.23,202.25 -102.78,293.65 -40.98,87.96 -93.13,165.78 -165.93,221.48l0 210.42c0,95.76 -39.16,182.82 -102.25,245.93l-0.16 0.16c-63.11,63.09 -150.17,102.26 -245.93,102.26l-1120.84 0c-95.88,0 -182.99,-39.16 -246.09,-102.26l0 -0.16c-63.09,-63.11 -102.25,-150.17 -102.25,-245.93l0 -193.35c-81.13,-53.3 -138.52,-132.78 -183.04,-224.38 -46.35,-95.35 -78.49,-203.33 -109.57,-307.83l-4.5 -14.87c-111.67,-18.66 -209.77,-75.07 -281.57,-155.1 -77.86,-86.77 -124.84,-201.24 -124.84,-325.43 0,-91.57 25.7,-179.18 71.71,-254.33 41.77,-68.24 100.39,-126.2 171.77,-167.48zm2272.36 1069.84l7.48 -19.33c23.19,-61.5 43.06,-128.28 62.42,-193.41l11.31 -38.09 -0.18 -1.24c-0.77,-5.24 -1.18,-10.38 -1.18,-15.23l0 -341.16 -251.7 365.17c46.26,26.26 85.45,62.52 115.09,105.37 28.34,40.96 47.97,87.92 56.76,137.92zm-1921.89 -282.55c3.2,10.54 20.94,65.05 20.94,69.81 21.65,72.82 43.91,147.67 70.22,213.78 6,15.06 12.22,29.74 18.72,43.95 2.82,-65.7 24.31,-127.93 60.07,-180.53 28.46,-41.88 66.02,-77.58 110.4,-104.02l-280.36 -367.93 0 324.94zm1439.43 -1211.1c-104.17,57.87 -209.32,114.39 -315.7,169.07 -117.45,60.37 -237.64,119.14 -361.18,175.85 -119.74,54.96 -241.62,107.55 -365.95,157.24l-0.17 0c-107.39,42.92 -216.78,83.81 -328.36,122.34l442.34 580.52 1012.79 0 440.6 -639.27 -2.38 -78.64c-106.85,-59.82 -203.39,-136.81 -291.54,-222.96 -83.93,-82.02 -160.19,-172.44 -230.44,-264.15zm775.52 845.62l0 252.83c41.8,-17.6 77.97,-45.15 105.91,-79.44 38.74,-47.55 61.62,-108.21 61.62,-173.39 0,-65.19 -22.88,-125.85 -61.62,-173.4 -27.93,-34.29 -64.11,-61.84 -105.91,-79.44l0 252.83zm-2428.16 252.83l0 -505.67c-41.8,17.6 -77.97,45.15 -105.91,79.44 -38.74,47.55 -61.62,108.21 -61.62,173.4 0,65.18 22.88,125.85 61.62,173.39 27.93,34.29 64.12,61.84 105.91,79.44zm1791.97 319.78l-1120.84 0c-37.06,0 -70.85,15.25 -95.36,39.76 -24.51,24.51 -39.77,58.31 -39.77,95.37l0 513.22c0,37.06 15.26,70.85 39.77,95.37 24.51,24.51 58.3,39.76 95.36,39.76l1120.84 0c37.06,0 70.85,-15.25 95.37,-39.76 24.51,-24.51 39.77,-58.31 39.77,-95.37l0 -513.22c0,-37.06 -15.26,-70.85 -39.77,-95.37 -24.51,-24.51 -58.31,-39.76 -95.37,-39.76zm-170.57 1355.07l-803.75 0 401.87 750.46 401.87 -750.46zm1932.4 1949.94c-10.36,-5.51 -28.31,-8.54 -51.28,-10.32 -26.18,-2.04 -59.04,-2.06 -94.89,-2.06 -35.86,0 -68.72,0.02 -94.89,2.04 -22.96,1.78 -40.91,4.81 -51.28,10.33l0 0.17c-3.64,1.93 -6.91,6.42 -9.81,14.53 -5.14,14.32 -7.89,36.13 -7.89,67.53 0,1.34 106.81,65.3 170.23,104.7 59.89,-39.59 157.54,-104.15 157.54,-104.7 0,-31.4 -2.76,-53.21 -7.89,-67.53 -2.9,-8.1 -6.18,-12.59 -9.81,-14.53l0 -0.17zm-136.6 583.94l-4.96 -4.62 -5.26 4.65 10.22 -0.04zm-465.21 -1564.93c35.3,0 67.3,14.33 90.44,37.48 23.12,23.29 37.48,55.26 37.48,90.44 0,35.3 -14.33,67.3 -37.48,90.44 -23.15,23.15 -55.14,37.48 -90.44,37.48 -35.19,0 -67.15,-14.36 -90.36,-37.57 -23.23,-23.06 -37.57,-55.06 -37.57,-90.36 0,-35.14 14.33,-67.08 37.48,-90.29l0.15 -0.16c23.21,-23.15 55.15,-37.48 90.29,-37.48z"/>
 </g>
</svg>
