<?xml version="1.0" encoding="UTF-8"?>
<!DOCTYPE svg PUBLIC "-//W3C//DTD SVG 1.1//EN" "http://www.w3.org/Graphics/SVG/1.1/DTD/svg11.dtd">
<!-- Creator: CorelDRAW 2018 (64-Bit) -->
<svg xmlns="http://www.w3.org/2000/svg" xml:space="preserve" width="7.87402in" height="7.87402in" version="1.1" style="shape-rendering:geometricPrecision; text-rendering:geometricPrecision; image-rendering:optimizeQuality; fill-rule:evenodd; clip-rule:evenodd"
viewBox="0 0 7874.02 7874.02"
 xmlns:xlink="http://www.w3.org/1999/xlink">
 <g id="Layer_x0020_1">
  <path class="fil0" fill="#AD2A26" d="M1847.85 3965.91l393.24 0c54.67,0 98.99,44.32 98.99,98.99l0 315.98 276.69 0c54.67,0 98.99,44.32 98.99,98.99l0 393.24c0,54.67 -44.32,98.99 -98.99,98.99l-276.69 0 0 262.08c0,54.67 -44.32,98.99 -98.99,98.99l-393.24 0c-54.67,0 -98.99,-44.32 -98.99,-98.99l0 -262.08 -301.37 0c-54.67,0 -98.99,-44.32 -98.99,-98.99l0 -393.24c0,-54.67 44.32,-98.99 98.99,-98.99l301.37 0 0 -315.98c0,-54.67 44.32,-98.99 98.99,-98.99zm4095.12 -2429.49c71.02,0 128.59,57.57 128.59,128.6 0,71.04 -57.57,128.61 -128.59,128.61 -71.04,0 -128.61,-57.56 -128.61,-128.61 0,-71.02 57.57,-128.6 128.61,-128.6zm-1426.96 -1025.7c-22.8,-29.35 -173.1,-10.8 -352.46,46.26 -87.36,27.81 -178.79,67.8 -264.76,120.43 -83.63,51.17 -161.38,114.3 -223.71,189.64 -162.04,195.86 -217.46,482.72 9.89,872.26 3.73,6.41 5.71,9.47 6.16,9.61 12.06,3.66 33.14,-4.63 60.89,-22.2 5.48,-4.59 11.47,-8.61 17.96,-12 8.67,-6.06 17.84,-12.85 27.45,-20.28 69.31,-53.54 146.83,-135.98 224.98,-233.77 211.91,-265.17 423.37,-630.83 493.81,-845.52 1.2,-13.43 5.14,-26.28 11.36,-37.88 3.97,-14.7 7.08,-28.45 9.29,-41.12 -8.31,-7.25 -15.37,-15.84 -20.86,-25.42zm2278.25 1427.75c-26.97,70.94 -59.51,141.07 -97.13,212.72l-0.16 0.31 0.16 0.08c-53.82,102.49 -116.72,205.72 -188.08,318.17 -67.1,105.74 -124.24,227 -181.35,348.19 -24.49,52.01 -49,104.02 -72.7,152.01 42.09,140.85 77.72,295.65 56.94,445.8 -24.34,176.09 -121.47,336 -361.56,443.49 -9.96,4.44 -20.26,7.11 -30.56,8.12 -162.35,15.94 -285.06,2.28 -387.52,-26.49 -100.24,-28.14 -177.67,-69.56 -253.7,-111.7 -4.13,-2.06 -8.16,-4.38 -12.06,-7.04l0.08 -0.09 0.01 0.01 -0.09 0.06 0.06 -0.07 -0.28 -0.19 -0.91 0.31c-74.58,41.24 -150.89,81.55 -249.06,109.12 -102,28.63 -224.01,42.28 -385.16,26.68 -11.08,-0.83 -22.2,-3.53 -32.92,-8.33 -240.08,-107.47 -337.22,-267.38 -361.59,-443.48 -20.75,-150.15 14.87,-304.95 56.97,-445.8 -23.7,-47.98 -48.22,-100.02 -72.75,-152.09 -57.11,-121.18 -114.21,-242.39 -181.32,-348.1 -71.37,-112.46 -134.26,-215.68 -188.09,-318.18l0.18 -0.09 -0.18 -0.31c-36.17,-68.89 -67.65,-136.43 -93.98,-204.61 -43,11.71 -84.43,12.52 -123.58,0.64 -49.1,-14.93 -89.74,-46.91 -119.86,-98.54 -279.63,-479.17 -202.17,-843.22 8.69,-1098.09 76.79,-92.8 171.64,-170 273.2,-232.17 99.22,-60.7 205.69,-107.17 308.06,-139.74 226.57,-72.11 442.02,-67.79 540.91,-0.55 78.18,16.77 90.96,57.2 89,96.8 3.17,9.7 4.88,20.03 4.88,30.78 0,1.78 -0.05,3.64 -0.1,5.48 191.78,-29.75 378.73,-41.29 561.07,-38.06 174.29,3.09 343.5,19.83 507.98,47.16 -0.3,-5.02 -0.51,-9.92 -0.51,-14.58 0,-10.75 1.72,-21.11 4.89,-30.8 -1.94,-39.59 10.87,-80.04 89.01,-96.79 98.87,-67.26 314.31,-71.56 540.91,0.53 102.37,32.58 208.83,79.04 308.06,139.76 101.55,62.18 196.43,139.38 273.2,232.21 210.85,254.83 288.28,618.9 8.68,1098.04 -30.12,51.63 -70.75,83.61 -119.87,98.54 -37.42,11.36 -76.91,11.12 -117.84,0.86zm-1419.15 1618.61c65,35.99 130.92,71.21 210.54,93.56 77.99,21.9 172.54,32.59 298.7,21.78 154.34,-73.34 216.85,-174.46 231.96,-283.74 16.99,-122.8 -20.12,-264.38 -59.71,-392.65 -9.61,-25.19 -8.94,-54.21 4.26,-80.13 32.31,-63.57 60.27,-122.94 88.21,-182.23 60.2,-127.76 120.43,-255.57 192.96,-369.85 69.89,-110.11 130.75,-209.8 180.36,-304.26l0.15 0.11c38.13,-72.67 70.41,-143.73 96.17,-216.29 -78.91,-62.79 -164.32,-153.8 -248.97,-259.74 -205.56,-257.19 -410.74,-612.06 -506.55,-862.57 -183.23,-35.17 -371.94,-56.87 -566.53,-60.31 -195.85,-3.48 -398.94,11.65 -610.03,50.3 -94.09,250.98 -302.03,611.93 -510.33,872.58 -82.98,103.84 -166.69,193.33 -244.29,255.98 25.44,70.55 56.99,139.73 94.1,210.44l0.16 -0.09c49.61,94.46 110.47,194.14 180.33,304.24 72.54,114.29 132.75,242.05 192.92,369.8 27.94,59.33 55.93,118.65 88.28,182.3 13.19,25.93 13.85,54.94 4.24,80.13 -39.59,128.26 -76.7,269.85 -59.7,392.66 15.12,109.28 77.65,210.43 232.05,283.78 126.15,10.75 220.64,0.07 298.61,-21.84 81.64,-22.9 148.88,-59.34 215.48,-96.31 6.04,-3.37 12.29,-6 18.62,-7.99l-0.05 -0.12c10.99,-3.43 15.52,-5.01 19.24,-6.31 75.95,-26.42 79.35,-27.57 158.83,26.78zm371.35 -902.02c-19.42,116.43 -87.21,229.89 -166.05,319.98 -105.12,120.16 -241.35,203.72 -317.24,203.72 -6.54,0 -12.93,-0.64 -19.11,-1.84 -101.33,-14.84 -209.01,-95.3 -294.04,-192.48 -98.04,-112.03 -171.68,-254.5 -171.68,-345.62 0,-14.67 3.2,-28.58 8.91,-41.09 48.36,-113.88 249.07,-166.43 451.94,-169.34 65.42,-0.95 130.29,2.27 188.46,9.3 62.29,7.51 119.75,19.41 165.91,35.32 93.44,32.15 152.91,86.33 154.03,164.66 0.07,5.91 -0.38,11.72 -1.31,17.37l0.18 0.03zm-314.54 190.06c54.54,-62.33 101.38,-137.01 117.19,-209.78 -2.72,2.88 -9.57,28.29 -19.71,24.8 -33.04,-11.38 -76.43,-20.17 -124.96,-26.03 -52.69,-6.35 -108.8,-9.3 -162.96,-8.53 -118.44,1.7 -230.07,13.07 -262.07,35.48 12.15,49.42 59.24,125.05 119.1,193.46 56.02,64.01 119.16,116.41 168.42,125.95 29.7,-4.51 98,-58.75 165,-135.34zm589.38 -2257.57c6.06,11.12 10.01,23.43 11.43,36.32 73.22,215.76 281.83,575.2 490.9,836.8 78.13,97.79 155.68,180.23 224.97,233.77 50.31,38.87 88.31,59.93 106.29,54.48 0.45,-0.13 2.43,-3.2 6.18,-9.61 227.33,-389.54 171.93,-676.37 9.88,-872.23 -62.32,-75.34 -140.07,-138.5 -223.7,-189.66 -85.97,-52.63 -177.41,-92.64 -264.76,-120.43 -179.38,-57.08 -329.69,-75.61 -352.46,-46.26 -5.5,9.58 -12.56,18.17 -20.87,25.42 2.7,15.6 6.78,32.81 12.15,51.4zm-1456.3 948.87c71.02,0 128.6,57.57 128.6,128.6 0,71.04 -57.58,128.61 -128.6,128.61 -71.04,0 -128.63,-57.56 -128.63,-128.61 0,-71.02 57.59,-128.6 128.63,-128.6zm-3659.33 -999.44c83.65,46.99 155.68,75.8 222.66,102.58 106.42,42.52 201.53,80.55 315.32,171.33 153.37,-44.24 302.41,-61.68 448.09,-58.93 148.56,2.82 291.98,26.34 431.94,63.65l561.55 -285.66c48.7,-24.77 108.25,-5.4 133.02,43.3 9.47,18.65 12.47,38.88 9.84,58.15l-83.2 686.43 109.17 545.85c9.51,47.57 14.04,94.51 14.04,140.58 0,213.81 -97.06,408.34 -248.65,559.67 -147.32,147.03 -347.13,253.39 -558.19,295.6 -66.62,13.32 -134.42,20.35 -202.11,20.35l-336.7 0c-67.69,0 -135.48,-7.03 -202.11,-20.35 -211.09,-42.21 -410.89,-148.57 -558.18,-295.6 -151.6,-151.33 -248.67,-345.86 -248.67,-559.67 0,-46.07 4.56,-93.02 14.06,-140.58l109.16 -545.85 -83.2 -686.36c-6.41,-54.24 32.37,-103.42 86.61,-109.83 23.93,-2.81 46.84,3.14 65.56,15.34zm1102.46 1634.65c16.06,11.81 35.93,18.81 57.43,18.81 26.79,0 51.04,-10.86 68.57,-28.39l0.13 0.15c17.44,-17.53 28.24,-41.81 28.24,-68.74 0,-43.71 35.46,-79.18 79.19,-79.18 43.72,0 79.19,35.47 79.19,79.18 0,70.28 -28.61,134.03 -74.8,180.26l-0.16 0.15 0.16 0.16c-46.21,46.2 -110.05,74.8 -180.53,74.8 -67.52,0 -128.96,-26.23 -174.61,-69.07 -45.7,43.01 -107.25,69.37 -174.94,69.37 -70.46,0 -134.32,-28.61 -180.52,-74.81 -46.2,-46.22 -74.8,-110.05 -74.8,-180.52 0,-43.74 35.48,-79.22 79.19,-79.22 43.72,0 79.18,35.48 79.18,79.22 0,26.77 10.86,51.03 28.39,68.55 17.52,17.53 41.78,28.39 68.55,28.39 24,0 45.95,-8.69 62.86,-23.07 -30.06,-11.27 -51.44,-40.22 -51.44,-74.21 0,-15.83 4.65,-30.58 12.66,-42.95l92.09 -175.91c20.16,-38.59 67.79,-53.56 106.41,-33.4 15.09,7.89 26.59,19.99 33.76,34.07l95.11 181.71c20.16,38.59 5.2,86.25 -33.4,106.41 -8.34,4.35 -17.09,7.06 -25.93,8.26zm-489.11 -822.49c40.87,0 77.91,16.57 104.72,43.38 26.77,26.78 43.39,63.83 43.39,104.7 0,40.86 -16.59,77.91 -43.39,104.73 -3.01,3 -6.15,5.77 -9.43,8.31 -25.79,21.84 -59.06,35.06 -95.29,35.06 -40.89,0 -77.93,-16.6 -104.7,-43.37 -26.82,-26.82 -43.39,-63.87 -43.39,-104.73 0,-40.88 16.6,-77.93 43.39,-104.7 26.8,-26.81 63.81,-43.38 104.7,-43.38zm758.25 -2.32c40.9,0 77.91,16.6 104.69,43.38 3.13,3.14 5.99,6.43 8.62,9.85 21.69,25.85 34.77,58.96 34.77,94.85 0,40.54 -16.67,77.54 -43.59,104.51l0.2 0.19c-26.78,26.81 -63.8,43.41 -104.69,43.41 -40.61,0 -77.52,-16.6 -104.33,-43.39l-0.39 -0.41c-26.77,-26.8 -43.39,-63.72 -43.39,-104.32 0,-40.6 16.62,-77.51 43.39,-104.32l0.39 -0.38c26.81,-26.78 63.72,-43.38 104.33,-43.38zm-1222.41 -523.99c-26.74,-10.7 -54.22,-21.67 -83.03,-33.97l62.69 517.27c1.84,11.33 1.72,23.17 -0.67,35.09l-112.24 561.17c-6.84,34.41 -10.15,68.44 -10.15,101.89 0,158 74.11,304.13 189.88,419.7 120.06,119.85 283.88,206.73 457.67,241.48 53.89,10.78 108.72,16.45 163.43,16.45l336.7 0c54.69,0 109.53,-5.68 163.43,-16.45 173.77,-34.75 337.6,-121.63 457.68,-241.49 115.74,-115.56 189.87,-261.68 189.87,-419.69 0,-33.46 -3.3,-67.48 -10.17,-101.89l-112.24 -561.17c-1.93,-9.93 -2.41,-20.35 -1.18,-30.94l63.01 -519.9 -430.36 218.94c-21.47,10.9 -46.94,14.05 -71.92,6.94 -137.93,-39.33 -277.25,-64.43 -418.63,-67.09 -139.59,-2.63 -283.29,16.3 -432.56,64.55 -33.09,12.43 -71.81,6.68 -100.21,-18.32 -108.66,-95.67 -198.75,-131.67 -301.02,-172.56zm4073.93 3774.24c127.74,0 243.4,51.8 327.1,135.51 83.72,83.7 135.51,199.36 135.51,327.11 0,127.72 -51.8,243.4 -135.51,327.1 -61.44,61.45 -140.1,105.69 -228.11,124.88l0 1252.48c0,181.61 -74.26,346.71 -193.85,466.3 -119.59,119.61 -284.68,193.85 -466.31,193.85l-1978.11 0c-181.63,0 -346.72,-74.25 -466.32,-193.85 -119.59,-119.59 -193.83,-284.68 -193.83,-466.3l0 -742.76 -359.19 0c-283.26,0 -540.73,-115.81 -727.3,-302.39 -186.57,-186.59 -302.39,-444.04 -302.39,-727.3l0 -1221.58c0,-90.96 35.51,-172.41 94.17,-231.46 58.63,-58.99 139.64,-94.88 230.76,-94.88l24.88 0 0 -172.89c0,-54.67 44.32,-98.99 98.99,-98.99l266.56 0c100.35,0 191.65,41.11 257.85,107.3l0.39 0.39c66.19,66.2 107.3,157.48 107.3,257.85 0,100.35 -41.11,191.65 -107.3,257.85l-0.39 0.39c-66.2,66.19 -157.51,107.3 -257.85,107.3l-266.56 0c-54.67,0 -98.99,-44.32 -98.99,-98.99l0 -162.24 -24.88 0c-36.65,0 -68.48,13.66 -90.78,36.09 -22.54,22.67 -36.17,55.09 -36.17,92.27l0 1221.58c0,228.62 93.6,436.53 244.39,587.33 150.79,150.78 358.71,244.39 587.33,244.39l458.18 0 458.18 0c228.62,0 436.53,-93.6 587.33,-244.39 150.78,-150.8 244.39,-358.71 244.39,-587.33l0 -1221.58c0,-34.7 -15.15,-65.83 -39.08,-88.55 -26.02,-24.71 -62.26,-39.81 -101.32,-39.81l-41.22 0 0 162.24c0,54.67 -44.32,98.99 -98.99,98.99l-266.56 0c-100.37,0 -191.65,-41.11 -257.85,-107.3l-0.39 -0.39c-66.19,-66.2 -107.3,-157.51 -107.3,-257.85 0,-100.37 41.11,-191.65 107.3,-257.85l0.39 -0.39c66.2,-66.19 157.48,-107.3 257.85,-107.3l266.56 0c54.67,0 98.99,44.32 98.99,98.99l0 172.89 41.22 0c90.55,0 175.46,35.9 237.42,94.74 61.83,58.7 100.96,140 100.96,231.6l0 1221.58c0,283.26 -115.81,540.72 -302.39,727.3 -186.59,186.57 -444.04,302.39 -727.3,302.39l-359.19 0 0 742.76c0,126.99 52.03,242.52 135.84,326.33 83.81,83.81 199.35,135.85 326.34,135.85l1978.11 0c126.99,0 242.52,-52.03 326.33,-135.85 83.81,-83.81 135.85,-199.35 135.85,-326.33l0 -1252.48c-88,-19.19 -166.67,-63.43 -228.11,-124.88 -83.72,-83.72 -135.51,-199.38 -135.51,-327.1 0,-127.73 51.8,-243.39 135.51,-327.11 83.7,-83.71 199.38,-135.51 327.1,-135.51zm-2190.15 -1227.19l-167.56 0c-46.14,0 -88.08,18.81 -118.46,49.1 -30.29,30.38 -49.1,72.32 -49.1,118.46 0,46.13 18.81,88.08 49.1,118.46 30.38,30.29 72.32,49.1 118.46,49.1l167.56 0 0 -335.13zm-1682.8 0l-167.56 0 0 335.13 167.56 0c46.13,0 88.08,-18.81 118.46,-49.1 30.29,-30.38 49.1,-72.33 49.1,-118.46 0,-46.14 -18.81,-88.08 -49.1,-118.46 -30.38,-30.29 -72.33,-49.1 -118.46,-49.1zm3843.81 1952.84c9.21,-2.83 18.99,-4.37 29.13,-4.37 10.15,0 19.92,1.54 29.14,4.37 61.44,-6.74 116.57,-34.5 157.99,-75.91 47.89,-47.88 77.51,-114.05 77.51,-187.13 0,-73.09 -29.62,-139.25 -77.51,-187.13 -47.88,-47.89 -114.04,-77.51 -187.13,-77.51 -73.07,0 -139.25,29.62 -187.13,77.51 -47.87,47.87 -77.51,114.04 -77.51,187.13 0,73.07 29.64,139.26 77.51,187.13 41.41,41.41 96.54,69.18 157.99,75.91zm-2957.53 -1158.83l-195.26 0 0 315.98c0,54.67 -44.32,98.99 -98.99,98.99l-301.37 0 0 195.26 301.37 0c54.67,0 98.99,44.32 98.99,98.99l0 262.07 195.26 0 0 -262.07c0,-54.67 44.32,-98.99 98.99,-98.99l276.69 0 0 -195.26 -276.69 0c-54.67,0 -98.99,-44.32 -98.99,-98.99l0 -315.98z"/>
 </g>
</svg>
