<?xml version="1.0" encoding="UTF-8"?>
<!DOCTYPE svg PUBLIC "-//W3C//DTD SVG 1.1//EN" "http://www.w3.org/Graphics/SVG/1.1/DTD/svg11.dtd">
<!-- Creator: CorelDRAW 2018 (64-Bit) -->
<svg xmlns="http://www.w3.org/2000/svg" xml:space="preserve" width="7.87402in" height="7.87402in" version="1.1" style="shape-rendering:geometricPrecision; text-rendering:geometricPrecision; image-rendering:optimizeQuality; fill-rule:evenodd; clip-rule:evenodd"
viewBox="0 0 7874.02 7874.02"
 xmlns:xlink="http://www.w3.org/1999/xlink">
 <g id="Layer_x0020_1">
  <metadata id="CorelCorpID_0Corel-Layer"/>
  <path class="fil0" fill="#28365F" fill-opacity=".25" d="M4990.87 6366.7c199.63,-119.93 383.32,-263.69 547.03,-427.4 513.14,-513.11 830.56,-1222.12 830.56,-2005.21 0,-783.09 -317.41,-1492.1 -830.56,-2005.21 -448.78,-448.78 -1047.39,-747.86 -1714.35,-815.83l0 1914.22c33.53,-137.71 81.46,-342.43 193.06,-509.26 20.97,-31.33 161.54,543.04 199.9,530.59 109.74,-35.59 237.14,-57.82 390.32,-59.69 278.64,-3.46 652.26,121.42 802.06,345.2l102.34 284.8c2.44,7.42 6.26,20.69 11.13,30.28 161.15,27.37 385.63,33.89 503.55,104.24 63.46,449.35 -198.94,782.54 -581.9,831.32 -642.53,72.25 -650.58,-1.35 -897.78,29.43 229.69,1238.17 322.88,1303.35 444.63,1752.52zm-2376.87 254.98l2.36 -515.75c-429.87,-45.92 -640.35,29.16 -758.22,-440.15 90.8,-113.14 131.56,-115.45 191,-239.89 147.06,-307.88 127.65,-531.25 634.94,-558.79l125.4 -458.65c125.54,108.91 181.24,209.93 232.36,291.25l0 -1588.75c-391.53,62.19 -741.95,247.89 -1009.98,515.92 -332.89,332.89 -538.81,792.85 -538.81,1300.88 0,508.03 205.92,967.96 538.81,1300.85 165.77,165.77 363.09,300.05 582.15,393.07zm627.82 725.77c-632.47,-23.33 -1203.05,-289.3 -1621.26,-707.55 -438.2,-438.17 -709.25,-1043.54 -709.25,-1712.15 0,-668.61 271.05,-1274 709.25,-1712.17 418.22,-418.25 988.8,-684.22 1621.26,-707.55l0 -1991.44 290.87 0c943.67,0 1798.08,382.55 2416.5,1001 618.45,618.42 1001,1472.83 1001,2416.5 0,943.67 -382.55,1798.08 -1001,2416.5 -618.42,618.45 -1472.83,1001 -2416.5,1001l-290.87 0 0 -4.15z"/>
 </g>
</svg>
