<?xml version="1.0" encoding="UTF-8"?>
<!DOCTYPE svg PUBLIC "-//W3C//DTD SVG 1.1//EN" "http://www.w3.org/Graphics/SVG/1.1/DTD/svg11.dtd">
<!-- Creator: CorelDRAW 2018 (64-Bit) -->
<svg xmlns="http://www.w3.org/2000/svg" xml:space="preserve" width="7.87402in" height="7.87402in" version="1.1" style="shape-rendering:geometricPrecision; text-rendering:geometricPrecision; image-rendering:optimizeQuality; fill-rule:evenodd; clip-rule:evenodd"
viewBox="0 0 7874.02 7874.02"
 xmlns:xlink="http://www.w3.org/1999/xlink">
  <g id="Layer_x0020_1">
  <path class="fil0" fill="#AD2A26" d="M2917.52 3700.98l448.66 0c62.37,0 112.94,50.57 112.94,112.94l0 360.51 315.68 0c62.37,0 112.94,50.57 112.94,112.94l0 448.66c0,62.37 -50.57,112.94 -112.94,112.94l-315.68 0 0 299.01c0,62.37 -50.57,112.94 -112.94,112.94l-448.66 0c-62.37,0 -112.94,-50.57 -112.94,-112.94l0 -299.01 -343.83 0c-62.37,0 -112.94,-50.57 -112.94,-112.94l0 -448.66c0,-62.37 50.57,-112.94 112.94,-112.94l343.83 0 0 -360.51c0,-62.37 50.57,-112.94 112.94,-112.94zm1825.39 -1591.64c0,4.93 -0.1,9.81 -0.29,14.62l951.15 0c62.37,0 112.94,50.57 112.94,112.94 0,3.83 -0.19,7.61 -0.56,11.33 0,3.33 0.05,6.68 0.17,10.05 0.55,4.51 0.83,9.08 0.83,13.72l-0.01 1.18 0.22 2.8 0.04 0.57 0.07 0.83 0.07 0.77 0.06 0.63 0.07 0.97 0.05 0.44 0.12 1.15 0.01 0.26 0.14 1.34 0 0.06 0.15 1.41 0.02 0.13c2.41,21.88 6.97,44.25 13.68,66.7 7.26,24.25 17.08,48.4 29.54,71.95l0.03 0.03 3.98 7.36 0.58 1.02 0.24 0.45 0.7 1.23 0.13 0.24 2.74 4.75 0.64 1.11 0.33 0.55 1.97 3.33 0.31 0.51 0.7 1.14 1.01 1.65 0.06 0.12 0.9 1.46 0.05 0.08 0.86 1.37 0.18 0.28 1.04 1.64 0.61 0.98 0.42 0.67 0.5 0.78 0.56 0.86 0.37 0.57 0.69 1.06 0.24 0.39 1.91 2.88c52.23,78.42 124.84,131.43 199.93,153.71 68.35,20.27 138.28,14.42 193.55,-22.4l1.88 -1.27 0.68 -0.46 1.18 -0.83 1.84 -1.31 1.83 -1.32 0.15 -0.11 1.65 -1.23 0.8 -0.61 4.51 -3.53 0.31 -0.26c45.87,-37.33 72.9,-94.21 79.79,-158.24 8.4,-78.16 -12.64,-165.94 -65.1,-244.69 -13,-19.5 -27.28,-37.46 -42.51,-53.68 -16.16,-17.21 -32.81,-32.2 -49.61,-44.85 -49.7,-37.28 -59.78,-107.79 -22.5,-157.49 3.69,-4.92 7.71,-9.45 12,-13.59 10.14,-9.89 20.37,-20.87 30.49,-32.98 9.69,-11.6 18.72,-23.63 26.95,-35.98 52.46,-78.76 73.5,-166.53 65.1,-244.69 -7.59,-70.63 -39.75,-132.62 -94.63,-169.18 -55.26,-36.81 -125.19,-42.67 -193.55,-22.4 -75.09,22.28 -147.68,75.28 -199.92,153.71 -16.38,24.6 -29.65,49.87 -39.82,75.26 -10.36,25.84 -17.74,52.2 -22.14,78.45 -9.19,55.17 -57.02,94.24 -111.17,94.18l0 0.23 -1022.51 0 0.28 0.33 0.28 0.33 0.28 0.32 0.28 0.33 0.15 0.19 0.13 0.14 0.28 0.33 0.28 0.33 0.27 0.33 0.28 0.33 0.28 0.33 0.28 0.33 0.05 0.05 0.23 0.28 0.28 0.33 0.28 0.33 0.27 0.33 0.28 0.35 0.28 0.33 0.22 0.26 0.07 0.08 0.28 0.33 0.27 0.35 0.28 0.33 0.28 0.33 0.27 0.35 0.28 0.33 0.1 0.13 0.18 0.22 0.27 0.33 0.28 0.35 0.28 0.33 0.27 0.35 0.28 0.33 0.27 0.35 0.01 0 0.27 0.35 0.28 0.33 0.27 0.35 0.28 0.35 0.27 0.35 0.28 0.34 0.17 0.2 0.11 0.13 0.27 0.35 0.55 0.69 0.27 0.35 0.28 0.35 0.27 0.35 0.05 0.07 0.5 0.63 0.28 0.35 0.27 0.34 0.27 0.35 0.28 0.35 0.22 0.28 0.05 0.07 0.27 0.35 0.28 0.35 0.27 0.36 0.27 0.35 0.27 0.34 0.28 0.36 0.1 0.14 0.17 0.2 0.27 0.36 0.27 0.35 0.28 0.36 0.27 0.36 0.27 0.35 0.27 0.36c54.93,71.96 92.9,161.78 92.9,283.28zm-161.62 275.61c-18.46,11.47 -38.38,22.17 -59.72,32.14 -113,52.8 -269.37,83.23 -457.66,100.34 -40.17,3.65 -76.94,5.42 -110.25,5.42 -168.68,0 -329.05,-35.55 -450.48,-94.11 -27.61,-13.31 -53.41,-27.95 -77.18,-43.79l-1050.61 0c-4.05,14.05 -8.63,28.03 -13.74,41.9 -8.26,22.4 -17.95,44.63 -29.07,66.52l-0.3 0.6 -0.92 1.8 -0.14 0.28 -1.06 2.07 -0.02 0.03 -1.05 2.04 -0.19 0.35 -1.25 2.39 -0.73 1.38 -0.54 0.99 -0.57 1.07 -0.7 1.31 -3.78 6.91 -0.11 0.19 -1.02 1.85 -0.3 0.51 -0.86 1.54 -0.47 0.82 -0.69 1.22 -0.65 1.14 -0.51 0.91 -0.85 1.45 -0.33 0.59 -1.02 1.76 -0.16 0.28 -1.2 2.04 -0.03 0.04 -1.18 1.98 -0.2 0.36 -1 1.68 -0.4 0.65 -0.83 1.37 -1.23 2.02 -0.77 1.28 -0.46 0.74 -0.98 1.59 -0.27 0.43 -1.18 1.88 -0.08 0.13 -1.27 2.01 -0.11 0.18 -1.15 1.83 -0.31 0.49 -0.97 1.52 -0.51 0.79 -0.78 1.22 -0.7 1.09 -0.59 0.91 -0.91 1.39 -0.4 0.6 -1.11 1.7 -0.2 0.29 -1.32 2 -1.39 2.09 -1.4 2.07 -1.1 1.63 -0.31 0.44 -1.42 2.06 -1.41 2.06 -0.82 1.17 -0.61 0.88 -1.44 2.04 -1.43 2.04 -0.51 0.7 -2.39 3.33 -1.46 2.01 -0.19 0.27 -1.27 1.73 -1.47 2 -1.36 1.83 -0.11 0.15 -1.48 1.98 -1.5 1.97 -1.05 1.38 -0.45 0.57 -1.5 1.96 -1.51 1.94 -0.74 0.95 -3.82 4.85 -0.42 0.52 -1.11 1.39 -1.54 1.91 -3.1 3.8 -1.55 1.88 -1.32 1.59 -0.24 0.3 -1.57 1.87 -2.56 3.04 -0.59 0.69 -1.59 1.84 -1.59 1.84 -0.65 0.76 -0.95 1.07 -1.6 1.83 -1.6 1.82 -0.32 0.35 -2.92 3.27 -1.59 1.75 -0.03 0.04 -4.53 4.92 -0.39 0.42 -3.29 3.52 -0.91 0.96 -0.74 0.78 -1.67 1.74 -1.67 1.73 -0.56 0.59 -1.11 1.14 -1.68 1.72 -1.68 1.72 -0.2 0.19 -4.72 4.72 -0.15 0.15 -1.7 1.68 -2.89 2.82 -0.52 0.51 -3.44 3.3 -0.82 0.78 -0.91 0.86 -1.73 1.63 -1.74 1.63 -0.44 0.41 -1.3 1.2 -1.74 1.6 -1.76 1.6 3567.6 0 -1.27 -1.31 -3.83 -3.97 -1.27 -1.32 -2.52 -2.68 -1.25 -1.34 -1.26 -1.35 -0.36 -0.37 -0.9 -0.98 -1.26 -1.36 -1.24 -1.36 -1.17 -1.26 -0.08 -0.1 -1.24 -1.37 -1.24 -1.38 -1.23 -1.37 -0.72 -0.8 -0.51 -0.59 -1.23 -1.4 -1.23 -1.38 -0.13 -0.15 -2.3 -2.65 -1.22 -1.41 -1.22 -1.41 -1.05 -1.22 -0.15 -0.19 -1.2 -1.42 -1.2 -1.42 -1.19 -1.43 -0.63 -0.73 -0.58 -0.7 -1.19 -1.43 -1.18 -1.45 -1.19 -1.43 -0.19 -0.24 -0.98 -1.22 -1.18 -1.45 -1.18 -1.46 -0.94 -1.19 -0.22 -0.28 -1.17 -1.46 -1.17 -1.47 -1.15 -1.48 -0.54 -0.68 -0.63 -0.79 -2.31 -2.98 -1.14 -1.49 -0.13 -0.17 -1.01 -1.34 -1.14 -1.5 -1.14 -1.51 -0.86 -1.14 -0.27 -0.37 -1.13 -1.51 -1.13 -1.52 -1.11 -1.52 -0.46 -0.63 -0.65 -0.91 -1.11 -1.52 -1.11 -1.55 -1.1 -1.54 -0.06 -0.09 -1.04 -1.46 -1.1 -1.55 -1.09 -1.56 -0.77 -1.09 -0.32 -0.46 -1.09 -1.57 -1.09 -1.56 -1.07 -1.57 -0.39 -0.55 -0.69 -1.02 -1.07 -1.59 -1.06 -1.59 -1.06 -1.59 -1.46 -2.2 -0.22 -0.32 -1.24 -1.89 -0.41 -0.64 -1.04 -1.57 -0.61 -0.96 -0.81 -1.25 -0.82 -1.28 -0.61 -0.94 -1 -1.59 -0.41 -0.64 -1.2 -1.91 -0.19 -0.32 -1.4 -2.23 -1.38 -2.24 -0.19 -0.32 -1.18 -1.92 -0.39 -0.64 -0.97 -1.6 -0.57 -0.96 -0.77 -1.28 -0.77 -1.29 -0.58 -0.96 -0.95 -1.61 -0.37 -0.64 -1.14 -1.93 -0.18 -0.32 -1.31 -2.25 -1.3 -2.27 -0.18 -0.32 -1.1 -1.95 -0.36 -0.64 -0.92 -1.63 -0.54 -0.98 -0.73 -1.3 -0.7 -1.28 -0.55 -0.98 -0.88 -1.61 -0.36 -0.67 -1.05 -1.94 -0.18 -0.33 -1.22 -2.27 -0.02 -0.01 -0.34 -0.65c-3.13,-5.88 -6.15,-11.77 -9.06,-17.67l-0.01 -0.05c-15.56,-31.56 -28.17,-63.78 -37.89,-96.18 -3.06,-10.21 -5.83,-20.45 -8.31,-30.72l-1016.07 0zm-1326.74 -265.61c-0.26,-4.13 -0.41,-7.48 -0.41,-10 0,-121.52 37.94,-211.32 92.9,-283.28l0.27 -0.36 0.27 -0.35 0.27 -0.36 0.28 -0.36 0.27 -0.35 0.27 -0.36 0.17 -0.2 0.1 -0.14 0.28 -0.36 0.27 -0.34 0.27 -0.35 0.27 -0.36 0.28 -0.35 0.27 -0.35 0.06 -0.07 0.2 -0.28 0.28 -0.35 0.27 -0.35 0.27 -0.34 0.28 -0.35 0.27 -0.36 0.23 -0.28 0.05 -0.06 0.27 -0.35 0.28 -0.35 0.27 -0.35 0.27 -0.34 0.28 -0.35 0.27 -0.35 0.11 -0.14 0.17 -0.19 0.28 -0.34 0.27 -0.35 0.28 -0.35 0.27 -0.35 0.28 -0.33 0.27 -0.35 0.01 0 0.27 -0.35 0.28 -0.33 0.27 -0.35 0.28 -0.33 0.28 -0.35 0.27 -0.33 0.18 -0.22 0.1 -0.13 0.28 -0.33 0.27 -0.35 0.28 -0.33 0.28 -0.33 0.27 -0.35 0.28 -0.33 0.07 -0.08 0.22 -0.26 0.28 -0.33 0.28 -0.35 0.27 -0.33 0.28 -0.33 0.28 -0.33 0.23 -0.28 0.05 -0.05 0.28 -0.33 0.28 -0.33 0.28 -0.33 0.27 -0.33 0.28 -0.33 0.28 -0.33 0.13 -0.14 0.15 -0.19 0.28 -0.33 0.28 -0.32 0.28 -0.33 0.28 -0.33 -1036.59 0c-60.12,0 -109.25,-46.98 -112.73,-106.22 -3.56,-27.7 -10.32,-55.37 -20.31,-82.26 -10.52,-28.33 -25.05,-56.83 -43.63,-84.72 -52.24,-78.43 -124.83,-131.43 -199.93,-153.71 -68.35,-20.27 -138.28,-14.42 -193.54,22.4 -54.88,36.56 -87.04,98.55 -94.63,169.18 -8.4,78.16 12.64,165.93 65.1,244.69 8.24,12.36 17.26,24.38 26.96,35.98 10.11,12.11 20.35,23.1 30.58,32.89 44.81,43.11 46.2,114.44 3.09,159.26 -5.47,5.69 -11.39,10.67 -17.65,14.94 -15.46,12 -30.74,25.97 -45.64,41.82 -15.24,16.22 -29.52,34.18 -42.51,53.68 -28.89,43.37 -48.24,89.47 -58.41,135.2 -0.67,4.85 -1.64,9.6 -2.88,14.24 -5.88,32.47 -7.12,64.6 -3.83,95.26l0.01 0 0.37 3.3 0.19 1.55 0.22 1.74 0.09 0.68 0.34 2.42c2.64,18.46 6.99,36.3 13,53.24 1.93,5.47 4.06,10.82 6.35,16.08l0.73 1.67 0.14 0.3 0.88 1.96 0.27 0.57 0.64 1.36 0.69 1.46 0.22 0.47 0.95 1.92 0.19 0.41 0.76 1.5 0.64 1.27 0.33 0.64 0.98 1.88 0.11 0.22 0.02 0.03 1.46 2.7 0.43 0.8c1.35,2.43 2.73,4.83 4.16,7.2l0.01 0.02 0.08 0.13 3.18 5.08 0.18 0.3c1.04,1.63 2.11,3.21 3.2,4.8l0.31 0.46c1.59,2.31 3.23,4.59 4.91,6.83l0.13 0.15 1.14 1.51 0.7 0.91 0.57 0.76 1.31 1.65 1.92 2.35 0.73 0.9 1.22 1.44 0.13 0.17 1.37 1.59 0.48 0.55 0.9 1.02 1.13 1.26 0.27 0.31 3.87 4.15 0.42 0.45 1.69 1.73 1.26 1.27 0.9 0.89 0.59 0.59 1.51 1.45 0.09 0.09 1.44 1.35 0.77 0.72 0.77 0.7 1.5 1.35 0.07 0.06 1.57 1.4 0.64 0.56 0.95 0.82 1.38 1.17 0.23 0.19 1.63 1.34 0.48 0.41 1.15 0.93 1.24 0.98 0.41 0.32 1.68 1.3 0.33 0.27 1.35 1.01 1.11 0.83 0.59 0.44 1.73 1.24 0.17 0.13 1.56 1.1 0.96 0.67 0.8 0.54 1.77 1.19c55.27,36.81 125.19,42.67 193.55,22.39 75.09,-22.28 147.69,-75.29 199.92,-153.71l0.86 -1.29 0.13 -0.21 0.72 -1.09 0.27 -0.41 0.59 -0.88 0.38 -0.62 0.45 -0.69 0.53 -0.81 0.31 -0.49 0.65 -1.01 0.18 -0.29 0.78 -1.22 0.04 -0.08 1.64 -2.61 0.2 -0.32 0.6 -0.98 3.07 -5.07 0.1 -0.18 1.55 -2.64 0.14 -0.22 0.63 -1.1 0.26 -0.42c11.88,-20.54 21.69,-41.6 29.55,-62.83 11.05,-29.96 18.12,-59.98 21.24,-89.09 0.18,-1.67 0.39,-3.32 0.64,-4.94 0.69,-7.19 1.14,-14.3 1.34,-21.35 1.68,-61.08 51.76,-109.47 112.49,-109.44l0 -0.41 968.98 0 -0.06 -4.39 0 -0.05 0 -0.18zm247.62 -541.05c26.81,-71.94 69.04,-136.51 122.72,-189.78 95.9,-95.15 228.03,-154.02 373.63,-154.02 145.59,0 277.74,58.87 373.64,154.02 53.68,53.27 95.91,117.84 122.72,189.78l44.22 0c-3.79,-8.37 -7.3,-17 -10.51,-25.88 -25.54,-70.53 -32.55,-159.13 -15.41,-250.19 0.81,-7.15 2.25,-14.09 4.33,-20.76 20.62,-90.43 62.11,-168.73 113.26,-223 63.36,-67.21 142.92,-101.86 225,-89.48 9.03,0.82 17.75,2.69 26.05,5.5 79.71,21.77 138.48,84.9 169.69,171.02 25.55,70.53 32.55,159.17 15.39,250.27 -0.8,7.13 -2.26,14.07 -4.33,20.76 -13.8,60.54 -36.98,115.67 -66.15,161.75l571.22 0c3.52,-10.31 7.32,-20.57 11.42,-30.81 15.97,-39.81 36.29,-78.74 61,-115.85 82.6,-123.99 200.52,-208.73 324.33,-245.47 130.56,-38.72 268.06,-24.91 381.47,50.64 113.8,75.81 179.76,197.66 194.33,333.29 13.77,128.13 -18.91,269.25 -101.29,392.92l-11.44 16.65c20.26,22.59 39.23,46.99 56.62,73.1 22.86,34.3 41.89,69.96 57.15,106.31l642.91 0c66.38,0 126.67,27.08 170.29,70.71 43.61,43.61 70.7,103.9 70.7,170.28l0 261.9c0,66.07 -27.09,126.22 -70.7,169.85l-0.45 0.45c-43.63,43.6 -103.77,70.69 -169.84,70.69l-101.48 0 0 3632.02c0,62.37 -50.57,112.94 -112.94,112.94l-332.22 0 -1424.5 0 -4203.27 0c-62.37,0 -112.94,-50.57 -112.94,-112.94l0 -3632.02 -101.47 0c-66.07,0 -126.22,-27.09 -169.84,-70.69l-0.45 -0.45c-43.6,-43.63 -70.7,-103.77 -70.7,-169.85l0 -261.9c0,-66.38 27.08,-126.67 70.7,-170.28 43.63,-43.63 103.91,-70.71 170.29,-70.71l632.99 0c16.66,-45.01 38.98,-89.21 67.06,-131.38 17.39,-26.11 36.37,-50.52 56.62,-73.11l-11.45 -16.65c-82.37,-123.67 -115.05,-264.79 -101.28,-392.92 14.57,-135.63 80.53,-257.48 194.33,-333.29 113.41,-75.55 250.91,-89.37 381.47,-50.65 123.81,36.74 241.73,121.48 324.33,245.47 27.61,41.42 49.77,85.42 66.57,130.61 5.08,13.69 9.65,27.4 13.7,41.11l585.7 0c-40.18,-52.28 -72.16,-120.28 -89.15,-196.78l-0.83 -3.11 0.13 -0.09 -1.02 -4.81c-19.55,-94.49 -12.98,-186.95 13.47,-259.99 31.2,-86.13 89.98,-149.26 169.69,-171.02 8.3,-2.81 17.02,-4.69 26.06,-5.5 82.08,-12.39 161.63,22.29 225,89.49 51.69,54.83 93.52,134.22 113.9,225.84l0.83 3.15 -0.13 0.09 1.03 4.81c19.56,94.5 13,186.96 -13.46,260.03 -7.5,20.72 -16.59,40.11 -27.2,57.9l78.5 0zm800.4 196.07c-0.58,-4.61 -0.87,-9.3 -0.87,-14.06 0,-7.3 -0.26,-14.55 -0.78,-21.72l-0.01 -0.19 -0.01 -0.2 -0.02 -0.19 -0.02 -0.19 -0.01 -0.19 -0.02 -0.19 -0.01 -0.19 0 -0.04 -0.01 -0.15 -0.01 -0.2 -0.03 -0.19 -0.01 -0.19 -0.01 -0.19 -0.02 -0.19 -0.01 -0.2 -0.01 -0.19 -0.01 -0.19c-0.62,-7.45 -1.5,-14.83 -2.65,-22.11l-0.06 -0.35c-0.37,-1.84 -0.68,-3.71 -0.95,-5.59l-0.04 -0.27 -0.02 -0.08c-11.06,-61.59 -40.95,-116.54 -83.61,-158.86 -54.69,-54.25 -130.64,-87.84 -214.83,-87.84 -84.18,0 -160.12,33.57 -214.83,87.84 -54.17,53.74 -87.83,128.02 -88.34,210.23l0 0.58 0 0.61 0 0.67 -0.17 0c1.11,36.11 -15.1,72.12 -46.55,94.91 -44.42,32.19 -91.3,66.74 -122.49,107.6 -27.29,35.74 -46.13,81.8 -46.13,146.53l0.14 4.05c0.7,5.52 1.39,8.8 3.5,13.97l-0.14 0.07c1.83,4.87 4.92,9.64 7.59,14.08l-0.2 0.13c3.43,4.85 7.13,9.69 10.99,14.22l0.22 2.05c20.89,23.57 55.27,46.81 99.01,67.9 91.83,44.28 217.12,71.16 352.55,71.16 32.73,0 62.91,-1.19 89.97,-3.65 163.82,-14.89 295.6,-39.36 382.65,-80.03 58.16,-27.16 90.76,-60.84 90.76,-103.95 0,-64.74 -18.86,-110.8 -46.14,-146.53 -31.18,-40.85 -78.07,-75.41 -122.49,-107.6l0.16 -0.22 -1.19 -0.87 -0.14 -0.12 -1.04 -0.78 -0.27 -0.22 -0.89 -0.69 -0.42 -0.32 -0.73 -0.59 -0.55 -0.45 -0.59 -0.48 -0.68 -0.58 -0.45 -0.37 -0.81 -0.69 -0.31 -0.28 -0.92 -0.82 -0.18 -0.15 -1.05 -0.95 -0.04 -0.04 -1.08 -1.01 -0.09 -0.07 -0.98 -0.95 -0.2 -0.19 -0.84 -0.83 -0.33 -0.33 -0.7 -0.72 -0.45 -0.46 -0.57 -0.6 -0.55 -0.59 -0.45 -0.48 -0.68 -0.73 -0.32 -0.34 -0.78 -0.89 -0.19 -0.22 -0.88 -1.02 -0.09 -0.09 -0.94 -1.13 -0.03 -0.04 -0.91 -1.1 -0.14 -0.18 -0.78 -0.97 -0.26 -0.31 -0.65 -0.85 -0.35 -0.46 -0.54 -0.72 -0.46 -0.6 -0.43 -0.59 -0.55 -0.76 -0.31 -0.43 -0.64 -0.91 -0.2 -0.31 -0.73 -1.06 -0.1 -0.15 -0.81 -1.22 -0.01 -0.02 -0.8 -1.24 -0.09 -0.14 -0.69 -1.11 -0.18 -0.3 -0.59 -0.97 -0.27 -0.45 -0.49 -0.83 -0.35 -0.6 -0.38 -0.68 -0.43 -0.77 -0.3 -0.53 -0.5 -0.93 -0.2 -0.37 -0.57 -1.1 -0.11 -0.22 -0.64 -1.26 -0.03 -0.08 -0.65 -1.33 -0.05 -0.09 -0.59 -1.27 -0.12 -0.24 -0.5 -1.11 -0.18 -0.41 -0.41 -0.94 -0.26 -0.59 -0.33 -0.8 -0.31 -0.75 -0.26 -0.63 -0.36 -0.92 -0.18 -0.47 -0.43 -1.09 -0.1 -0.31 -0.47 -1.28 -0.04 -0.13 -0.49 -1.42 -0.02 -0.04 -0.45 -1.4 -0.07 -0.2 -0.39 -1.23 -0.11 -0.39 -0.32 -1.06 -0.15 -0.55 -0.26 -0.89 -0.2 -0.73 -0.19 -0.73 -0.37 -1.47 -0.27 -1.09 -0.09 -0.39 -0.3 -1.28 -0.05 -0.2 -0.31 -1.46 -0.01 -0.04 -0.3 -1.5 -0.02 -0.14 -0.26 -1.36 -0.07 -0.33 -0.19 -1.18 -0.09 -0.51 -0.14 -1.01 -0.11 -0.69 -0.11 -0.83 -0.12 -0.88 -0.07 -0.64 -0.13 -1.07 -0.05 -0.46 -0.13 -1.27 -0.03 -0.28 -0.02 -0.22zm-1146.09 -614.63c-4.19,1.01 -10.28,12.59 -16.78,30.52 -12.68,34.98 -15.48,82.09 -5.59,133.41 0.96,3.51 1.65,6.99 2.18,10.48 11.27,50.22 32.46,91.85 57.94,118.88 13.14,13.94 23.57,22.1 28.09,21.17 4.14,-0.85 10.28,-12.48 16.81,-30.55 12.68,-35 15.47,-82.12 5.58,-133.45 -0.96,-3.51 -1.65,-6.99 -2.18,-10.48 -11.27,-50.2 -32.46,-91.82 -57.94,-118.84 -13.12,-13.92 -23.54,-22.07 -28.12,-21.13zm1683.29 62.53c-6.49,-17.91 -12.57,-29.5 -16.71,-30.5 -4.63,-0.96 -15.04,7.18 -28.17,21.1 -25.66,27.21 -46.98,69.25 -58.2,119.93l-0.97 4.59c-11.02,53.22 -8.45,102.18 4.62,138.28 6.53,18.07 12.68,29.69 16.81,30.54 4.53,0.94 14.96,-7.24 28.08,-21.15 26.43,-28.03 48.25,-71.76 59.16,-124.46 11.02,-53.27 8.45,-102.23 -4.62,-138.32zm-530.43 -785.28c82.31,7.11 151.5,58.78 197.7,138.11 38.59,66.28 61.45,155.06 59.58,250.8l0.4 0c0,4.71 -0.28,9.3 -0.83,13.8 -4.1,92.41 -30.96,176.85 -71.62,239.46 -52.23,80.41 -128,129.42 -215.19,128.29l0 0.41c-5.7,0 -11.27,-0.42 -16.72,-1.23 -82.29,-7.11 -151.48,-58.78 -197.69,-138.11 -38.61,-66.25 -61.46,-154.99 -59.58,-250.76l-0.4 0c0,-4.75 0.28,-9.33 0.83,-13.84 4.1,-92.41 30.96,-176.85 71.62,-239.47 52.23,-80.41 128,-129.42 215.19,-128.29l0 -0.41c5.69,0 11.25,0.42 16.71,1.23zm2.7 251.06c-9.59,-16.48 -17.72,-26.75 -22.05,-26.85 -4.51,-0.1 -13.28,9.81 -23.73,25.92 -19.82,30.54 -33.09,74.35 -35.54,124.86l0.14 5.7 -0.37 0.1 -0.08 2.65c-1.32,54.04 10.08,101.76 29.54,135.17 9.59,16.46 17.71,26.74 22.04,26.85 4.53,0.1 13.29,-9.82 23.74,-25.92 19.82,-30.54 33.09,-74.36 35.54,-124.86l-0.14 -5.7 0.37 -0.06 0.08 -2.55c1.3,-54.15 -10.08,-101.89 -29.54,-135.31zm-585.38 -233.6c82.31,7.11 151.5,58.78 197.7,138.11 38.59,66.28 61.45,155.06 59.58,250.8l0.39 0c0,4.71 -0.28,9.3 -0.83,13.8 -4.1,92.41 -30.96,176.85 -71.62,239.46 -52.23,80.42 -128,129.42 -215.19,128.29l0 0.41c-5.7,0 -11.27,-0.43 -16.72,-1.23 -82.28,-7.11 -151.48,-58.77 -197.68,-138.11 -38.61,-66.25 -61.46,-154.99 -59.58,-250.76l-0.4 0c0,-4.75 0.28,-9.33 0.83,-13.84 4.1,-92.41 30.96,-176.85 71.62,-239.46 52.23,-80.42 128,-129.42 215.19,-128.3l0 -0.41c5.69,0 11.26,0.42 16.71,1.23zm2.7 251.06c-9.59,-16.48 -17.72,-26.75 -22.05,-26.85 -4.51,-0.1 -13.28,9.81 -23.73,25.92 -19.82,30.54 -33.09,74.34 -35.53,124.86l0.14 5.7 -0.37 0.1 -0.08 2.65c-1.32,54.04 10.08,101.76 29.54,135.17 9.59,16.46 17.71,26.74 22.04,26.85 4.54,0.1 13.29,-9.82 23.74,-25.92 19.82,-30.54 33.09,-74.36 35.54,-124.86l-0.14 -5.7 0.37 -0.06 0.07 -2.55c1.31,-54.15 -10.08,-101.89 -29.54,-135.31zm-2220.58 2571.54l3232.96 0c65.87,0 125.99,27.08 169.83,70.71l0.45 0.45c43.63,43.84 70.71,103.96 70.71,169.83l0 2419.78c0,66.38 -27.08,126.67 -70.71,170.29 -43.61,43.61 -103.9,70.7 -170.28,70.7l-3232.96 0c-66.07,0 -126.22,-27.1 -169.84,-70.7l-0.45 -0.45c-43.6,-43.63 -70.7,-103.77 -70.7,-169.84l0 -2419.78c0,-66.38 27.08,-126.67 70.7,-170.28 43.63,-43.63 103.91,-70.71 170.29,-70.71zm3704.22 48.04l1424.5 0c62.37,0 112.94,50.57 112.94,112.94l0 2984.01 106.35 0 0 -3471.07 -5734.11 0 0 3471.07 3977.39 0 0 -2984.01c0,-62.37 50.56,-112.94 112.94,-112.94zm381.55 1629.53c46.5,0 88.87,19.07 119.65,49.81l0.22 0.23 0.23 -0.23c30.73,30.73 49.81,73.24 49.81,120.07l0 158.19c0,46.84 -19.08,89.35 -49.81,120.08 -3.41,3.41 -6.96,6.54 -10.68,9.43 -29.63,25.16 -67.87,40.39 -109.41,40.39 -46.85,0 -89.37,-19.08 -120.1,-49.81 -30.73,-30.73 -49.81,-73.24 -49.81,-120.08l0 -158.19c0,-46.83 19.08,-89.34 49.81,-120.07 3.41,-3.41 6.98,-6.54 10.68,-9.43 29.61,-25.15 67.87,-40.39 109.41,-40.39zm930.01 -1403.65l-1198.62 0 0 2871.07 1198.62 0 0 -2871.07zm-1782.82 -48.04l-3232.96 0c-4.03,0 -7.81,1.76 -10.59,4.53 -2.78,2.78 -4.52,6.54 -4.52,10.58l0 2419.78c0,4.21 1.65,8.04 4.3,10.81 2.77,2.65 6.59,4.3 10.81,4.3l3232.96 0c4.04,0 7.8,-1.74 10.58,-4.52 2.78,-2.78 4.53,-6.56 4.53,-10.59l0 -2419.78c0,-4.33 -1.59,-8.08 -4.09,-10.58l-0.44 -0.45c-2.5,-2.5 -6.25,-4.08 -10.58,-4.08zm-1488.5 423.94l-222.78 0 0 360.51c0,62.37 -50.57,112.94 -112.94,112.94l-343.84 0 0 222.78 343.84 0c62.37,0 112.94,50.57 112.94,112.94l0 299.01 222.78 0 0 -299.01c0,-62.37 50.57,-112.94 112.94,-112.94l315.68 0 0 -222.78 -315.68 0c-62.37,0 -112.94,-50.57 -112.94,-112.94l0 -360.51zm-1861.79 -1541.91l-596.13 0c-4.03,0 -7.81,1.76 -10.59,4.53 -2.78,2.78 -4.52,6.54 -4.52,10.58l0 261.9c0,4.21 1.65,8.04 4.3,10.81 2.77,2.65 6.59,4.3 10.81,4.3l706.22 0c-28.04,-32.65 -50.86,-69.24 -68.33,-108.61l-1.05 -2.37 -1.02 -2.37 -1.03 -2.38 -2 -4.79 -0.94 -2.27 -0.04 -0.13 -0.97 -2.41 -0.95 -2.42 -0.32 -0.8 -0.63 -1.63 -0.92 -2.42 -0.67 -1.74 -0.26 -0.69 -0.9 -2.44 -0.9 -2.44 -0.07 -0.24 -0.8 -2.2 -0.78 -2.22 -0.5 -1.43 -0.27 -0.78 -1.5 -4.44 -0.22 -0.67 -0.51 -1.56c-3.65,-11.17 -6.9,-22.51 -9.76,-34.01l-0.1 -0.45 -0.46 -1.85 -0.55 -2.31 -0.46 -1.93 -0.09 -0.37 -1.05 -4.63 -0.26 -1.13 -0.26 -1.19 -0.5 -2.33 -0.49 -2.33 -0.07 -0.31 -0.41 -2.02 -0.46 -2.34 -0.46 -2.34 -0.45 -2.35 -0.44 -2.34 -0.19 -1 -0.23 -1.36 -0.42 -2.36c-1.97,-11.24 -3.59,-22.6 -4.8,-34.05 -1.27,-11.78 -2.15,-23.68 -2.63,-35.66zm5106.42 292.12l686.27 0c4.21,0 8.04,-1.65 10.81,-4.3 2.65,-2.76 4.3,-6.59 4.3,-10.81l0 -261.9c0,-4.04 -1.74,-7.8 -4.52,-10.58 -2.78,-2.78 -6.56,-4.53 -10.59,-4.53l-595.74 0c0.13,20.49 -0.89,40.77 -3.04,60.73 -9.16,85.24 -38.62,165.04 -87.5,231.39z"/>
 </g>
</svg>
