<?xml version="1.0" encoding="UTF-8"?>
<!DOCTYPE svg PUBLIC "-//W3C//DTD SVG 1.1//EN" "http://www.w3.org/Graphics/SVG/1.1/DTD/svg11.dtd">
<!-- Creator: CorelDRAW 2018 (64-Bit) -->
<svg xmlns="http://www.w3.org/2000/svg" xml:space="preserve" width="7.87402in" height="7.87402in" version="1.1" style="shape-rendering:geometricPrecision; text-rendering:geometricPrecision; image-rendering:optimizeQuality; fill-rule:evenodd; clip-rule:evenodd"
viewBox="0 0 7874.02 7874.02"
 xmlns:xlink="http://www.w3.org/1999/xlink">
 <g id="Layer_x0020_1">
  <path class="fil0" fill="#AD2A26" d="M3417.54 3051.94c29.51,15 56.81,31.57 81.52,49.5 30.32,21.99 57.34,46.42 80.41,72.83 28.35,32.46 50.57,67.71 65.61,105.09 14.87,36.96 22.78,75.76 22.78,115.82 0,63.06 -19.29,122.51 -54.22,176.1 -35.23,54.05 -86.43,101.85 -149.65,140.96 -57.72,35.71 -126.06,64.42 -201.43,83.92 -72.35,18.72 -151.06,29.06 -232.84,29.06 -81.78,0 -160.48,-10.35 -232.84,-29.06 -75.36,-19.49 -143.7,-48.21 -201.41,-83.92 -63.21,-39.12 -114.41,-86.92 -149.65,-140.96 -34.93,-53.59 -54.22,-113.05 -54.22,-176.1 0,-40.06 7.91,-78.88 22.78,-115.82 15.04,-37.38 37.28,-72.63 65.63,-105.09 23.06,-26.4 50.06,-50.81 80.39,-72.81 24.7,-17.93 52.01,-34.51 81.53,-49.52 5.22,-42.35 16.08,-82.84 31.68,-120.41 18.75,-45.16 44.54,-86.27 75.78,-121.57 36.26,-40.96 79.63,-73.94 127.83,-96.39 46.9,-21.85 98.43,-33.91 152.5,-33.91 54.08,0 105.6,12.07 152.52,33.91 48.2,22.45 91.57,55.43 127.83,96.39 31.24,35.28 57.03,76.4 75.78,121.56 15.61,37.57 26.46,78.06 31.68,120.42zm2903.01 -2127.33l1.42 -145.41c0.23,-25.44 10.69,-48.39 27.43,-64.88 16.75,-16.47 39.81,-26.59 65.15,-26.4 25.5,0.19 48.51,10.67 65.02,27.43 16.48,16.76 26.59,39.81 26.4,65.15l-1.4 144.11 112.94 0c26.38,0 51.76,5.37 75.03,15.05 24,9.99 45.67,24.65 63.89,42.79 0.22,0 0.47,0.25 0.47,0.47 18.12,18.21 32.74,39.89 42.7,63.83 9.67,23.27 15.02,48.6 15.02,74.95l0 4762.9c0,9.13 -1.39,18.07 -3.95,26.57l-0.14 0.15c-2.57,8.52 -6.27,16.41 -10.84,23.47l-304.97 557.66 0 349.52c0,25.4 -10.36,48.46 -27.06,65.17l0 0.13c-16.71,16.72 -39.82,27.06 -65.31,27.06 -25.49,0 -48.59,-10.35 -65.31,-27.06 -16.71,-16.71 -27.06,-39.81 -27.06,-65.31l0 -338.11 -288.85 -568.52 -2.13 -4.55 -7.97 0 0 -4600.14 -111.23 1.74 -1.91 1489.71 0.15 0c0,25.44 -10.33,48.48 -27,65.15 -16.67,16.67 -39.72,27 -65.15,27 -25.44,0 -48.48,-10.33 -65.15,-27 -16.67,-16.67 -27,-39.71 -27,-65.15l0.15 0 2.02 -1579.47c-0.25,-25.24 9.71,-48.26 26.04,-65.04 16.33,-16.78 39.14,-27.37 64.52,-27.8l204.56 -3.2 0 -24.89c0,-26.48 5.36,-51.93 15.05,-75.27 10.06,-24.18 24.7,-45.91 42.78,-63.99 35.67,-35.67 84.99,-57.84 139.27,-57.84l112.43 0zm-124.78 2824.89l434.11 0 0 -2627.79c0,-1.95 -0.3,-3.59 -0.81,-4.86 -0.59,-1.43 -1.47,-2.73 -2.54,-3.8 -0.21,0 -0.35,-0.13 -0.35,-0.35 -1.07,-1.07 -2.38,-1.94 -3.8,-2.53 -1.27,-0.52 -2.91,-0.82 -4.86,-0.82l-409.39 0c-1.7,0 -3.28,0.31 -4.61,0.87 -1.4,0.59 -2.81,1.57 -4.06,2.83 -2.26,2.26 -3.69,5.35 -3.69,8.66l0 2627.79zm434.11 665.05l-434.11 0 0 1457.7 206.27 406.08 227.83 -416.62 0 -1447.17zm0 -480.31l-434.11 0 0 295.57 434.11 0 0 -295.57zm-3396.72 1878.65c-25.44,0 -48.48,-10.33 -65.15,-27 -16.67,-16.67 -27,-39.71 -27,-65.15 0,-25.43 10.33,-48.48 27,-65.15 16.67,-16.67 39.71,-27 65.15,-27l0 0.15 1233.06 4.62 0 -0.15c25.43,0 48.48,10.33 65.15,27 16.67,16.67 27,39.72 27,65.15 0,25.44 -10.33,48.48 -27,65.15 -16.67,16.67 -39.72,27 -65.15,27l0 -0.15 -1233.06 -4.62 0 0.15zm0 -1015.87c-25.44,0 -48.48,-10.32 -65.15,-27 -16.67,-16.67 -27,-39.71 -27,-65.15 0,-25.43 10.33,-48.48 27,-65.15 16.67,-16.67 39.71,-27 65.15,-27l0 0.15 1233.06 4.62 0 -0.15c25.43,0 48.48,10.33 65.15,27 16.67,16.67 27,39.72 27,65.15 0,25.44 -10.33,48.48 -27,65.15 -16.67,16.67 -39.72,27 -65.15,27l0 -0.15 -1233.06 -4.62 0 0.15zm0 604.63c-25.44,0 -48.48,-10.33 -65.15,-27 -16.67,-16.67 -27,-39.71 -27,-65.15 0,-25.43 10.33,-48.48 27,-65.15 16.67,-16.67 39.71,-27 65.15,-27l0 0.15 1233.06 4.62 0 -0.15c25.43,0 48.48,10.32 65.15,27 16.67,16.67 27,39.72 27,65.15 0,25.44 -10.33,48.48 -27,65.15 -16.67,16.67 -39.72,27 -65.15,27l0 -0.15 -1233.06 -4.62 0 0.15zm0 -1015.87c-25.44,0 -48.48,-10.33 -65.15,-27 -16.67,-16.67 -27,-39.71 -27,-65.15 0,-25.43 10.33,-48.48 27,-65.15 16.67,-16.67 39.71,-27 65.15,-27l0 0.15 1233.06 4.62 0 -0.15c25.43,0 48.48,10.33 65.15,27 16.67,16.67 27,39.72 27,65.15 0,25.44 -10.33,48.48 -27,65.15 -16.67,16.67 -39.72,27 -65.15,27l0 -0.15 -1233.06 -4.62 0 0.15zm-1627.73 783.87l999.37 0c26.38,0 51.76,5.37 75.03,15.05 23.99,9.99 45.67,24.65 63.88,42.79 0.22,0 0.47,0.25 0.47,0.47 18.12,18.21 32.74,39.89 42.7,63.83 9.67,23.27 15.02,48.61 15.02,74.95l0 290.71c0,26.48 -5.36,51.93 -15.05,75.27 -10.05,24.19 -24.72,45.92 -42.79,64 -35.66,35.66 -84.98,57.83 -139.26,57.83l-999.37 0c-26.43,0 -51.82,-5.36 -75.11,-15.05 -24.14,-10.06 -45.87,-24.7 -63.94,-42.78l-0.21 -0.21c-18.08,-18.07 -32.73,-39.81 -42.78,-63.94 -9.69,-23.29 -15.05,-48.69 -15.05,-75.11l0 -290.71c0,-26.48 5.36,-51.93 15.05,-75.27 10.06,-24.18 24.7,-45.91 42.78,-63.99 35.67,-35.67 84.98,-57.84 139.27,-57.84zm999.37 184.74l-999.37 0c-1.71,0 -3.28,0.31 -4.61,0.87 -1.4,0.59 -2.81,1.57 -4.06,2.83 -2.26,2.26 -3.69,5.35 -3.69,8.66l0 290.71c0,1.91 0.3,3.55 0.84,4.84 0.59,1.45 1.53,2.83 2.68,4 1.16,1.15 2.54,2.08 4,2.68 1.29,0.53 2.93,0.83 4.84,0.83l999.37 0c1.7,0 3.28,-0.31 4.61,-0.87 1.41,-0.59 2.81,-1.57 4.06,-2.82 2.27,-2.27 3.7,-5.36 3.7,-8.67l0 -290.71c0,-1.94 -0.31,-3.59 -0.82,-4.86 -0.59,-1.43 -1.46,-2.73 -2.54,-3.8 -0.21,0 -0.34,-0.14 -0.34,-0.35 -1.07,-1.07 -2.38,-1.95 -3.8,-2.54 -1.27,-0.51 -2.91,-0.81 -4.86,-0.81zm-999.37 -1196.25l999.37 0c26.38,0 51.76,5.37 75.03,15.05 23.99,9.99 45.67,24.65 63.88,42.79 0.22,0 0.47,0.25 0.47,0.47 18.12,18.21 32.74,39.89 42.7,63.83 9.67,23.27 15.02,48.61 15.02,74.95l0 290.7c0,26.49 -5.36,51.94 -15.05,75.27 -10.05,24.19 -24.72,45.92 -42.79,64 -35.66,35.66 -84.98,57.83 -139.26,57.83l-999.37 0c-26.43,0 -51.82,-5.36 -75.11,-15.05 -24.14,-10.06 -45.87,-24.7 -63.94,-42.78l-0.21 -0.21c-18.08,-18.07 -32.73,-39.81 -42.78,-63.94 -9.69,-23.29 -15.05,-48.69 -15.05,-75.11l0 -290.7c0,-26.48 5.36,-51.93 15.05,-75.27 10.06,-24.18 24.7,-45.91 42.78,-63.99 35.67,-35.67 84.98,-57.84 139.27,-57.84zm999.37 184.74l-999.37 0c-1.71,0 -3.28,0.31 -4.61,0.87 -1.4,0.59 -2.81,1.57 -4.06,2.83 -2.26,2.26 -3.69,5.35 -3.69,8.66l0 290.7c0,1.91 0.3,3.55 0.84,4.84 0.59,1.46 1.53,2.84 2.68,4 1.16,1.15 2.54,2.08 4,2.68 1.29,0.53 2.93,0.83 4.84,0.83l999.37 0c1.7,0 3.28,-0.31 4.61,-0.87 1.41,-0.59 2.81,-1.57 4.06,-2.82 2.27,-2.27 3.7,-5.36 3.7,-8.67l0 -290.7c0,-1.94 -0.31,-3.59 -0.82,-4.86 -0.59,-1.43 -1.46,-2.73 -2.54,-3.8 -0.21,0 -0.34,-0.13 -0.34,-0.34 -1.07,-1.07 -2.38,-1.95 -3.8,-2.54 -1.27,-0.51 -2.91,-0.82 -4.86,-0.82zm-220.2 -3686.19l1283.57 0c26.38,0 51.76,5.37 75.03,15.05 23.99,9.99 45.67,24.65 63.88,42.79 0.22,0 0.47,0.25 0.47,0.47 18.12,18.21 32.74,39.89 42.7,63.83 9.67,23.27 15.02,48.6 15.02,74.95l0 170.12 1304.41 0c26.38,0 51.76,5.37 75.02,15.05 24,9.99 45.67,24.65 63.89,42.79 0.22,0 0.47,0.25 0.47,0.47 18.12,18.21 32.74,39.89 42.7,63.83 9.67,23.27 15.02,48.6 15.02,74.95l0 5424.79c0,26.49 -5.36,51.94 -15.05,75.27 -10.06,24.19 -24.72,45.93 -42.79,64 -35.66,35.66 -84.98,57.83 -139.26,57.83l-4279.46 0c-26.42,0 -51.82,-5.36 -75.11,-15.05 -24.14,-10.06 -45.87,-24.7 -63.95,-42.78l-0.21 -0.21c-18.07,-18.07 -32.73,-39.81 -42.78,-63.95 -9.69,-23.29 -15.05,-48.69 -15.05,-75.11l0 -5424.79c0,-26.49 5.36,-51.94 15.05,-75.27 10.05,-24.18 24.7,-45.91 42.78,-63.99 35.67,-35.67 84.99,-57.84 139.27,-57.84l1297.28 0 0 -170.12c0,-26.48 5.36,-51.93 15.05,-75.27 10.06,-24.18 24.7,-45.91 42.78,-63.99 35.67,-35.67 84.99,-57.84 139.27,-57.84zm1480.67 958.37l0 68.23c0,26.49 -5.36,51.94 -15.05,75.27 -10.06,24.19 -24.72,45.93 -42.79,64 -35.66,35.66 -84.98,57.83 -139.26,57.83l-1283.57 0c-26.42,0 -51.82,-5.36 -75.11,-15.05 -24.14,-10.06 -45.87,-24.7 -63.94,-42.78l-0.21 -0.21c-18.07,-18.07 -32.72,-39.81 -42.78,-63.94 -9.69,-23.29 -15.05,-48.69 -15.05,-75.11l0 -68.23 -872.4 0c-1.7,0 -3.28,0.31 -4.61,0.87 -1.41,0.59 -2.81,1.57 -4.06,2.83 -2.26,2.26 -3.69,5.35 -3.69,8.66l0 4621.21c0,1.91 0.31,3.55 0.84,4.83 0.6,1.46 1.53,2.84 2.68,4 1.16,1.15 2.55,2.08 4,2.68 1.29,0.53 2.93,0.83 4.84,0.83l3438.94 0c1.71,0 3.28,-0.31 4.61,-0.87 1.4,-0.59 2.8,-1.57 4.05,-2.82 2.27,-2.27 3.7,-5.36 3.7,-8.67l0 -4621.21c0,-1.95 -0.3,-3.59 -0.81,-4.86 -0.59,-1.42 -1.47,-2.73 -2.54,-3.8 -0.21,0 -0.35,-0.14 -0.35,-0.35 -1.07,-1.07 -2.38,-1.95 -3.8,-2.54 -1.26,-0.51 -2.91,-0.81 -4.86,-0.81l-888.78 0zm-197.1 -773.63l-1283.57 0c-1.7,0 -3.28,0.31 -4.61,0.87 -1.4,0.59 -2.81,1.57 -4.06,2.83 -2.26,2.26 -3.69,5.35 -3.69,8.66l0 829.5c0,1.91 0.3,3.55 0.83,4.84 0.6,1.46 1.53,2.84 2.68,4 1.17,1.15 2.55,2.09 4,2.68 1.29,0.54 2.93,0.84 4.84,0.84l1283.57 0c1.7,0 3.28,-0.31 4.61,-0.87 1.41,-0.59 2.81,-1.57 4.06,-2.81 2.27,-2.27 3.7,-5.36 3.7,-8.67l0 -829.5c0,-1.95 -0.31,-3.59 -0.82,-4.86 -0.59,-1.43 -1.46,-2.73 -2.54,-3.8 -0.21,0 -0.34,-0.13 -0.34,-0.35 -1.07,-1.07 -2.38,-1.94 -3.8,-2.53 -1.27,-0.52 -2.91,-0.82 -4.86,-0.82zm-1480.67 367.22l-1297.28 0c-1.71,0 -3.28,0.31 -4.61,0.87 -1.41,0.59 -2.81,1.57 -4.06,2.83 -2.26,2.26 -3.69,5.35 -3.69,8.66l0 5424.79c0,1.91 0.3,3.55 0.84,4.84 0.6,1.46 1.53,2.84 2.68,4 1.16,1.15 2.54,2.09 4,2.68 1.29,0.54 2.93,0.84 4.84,0.84l4279.46 0c1.7,0 3.28,-0.31 4.61,-0.87 1.4,-0.59 2.81,-1.57 4.05,-2.81 2.28,-2.28 3.7,-5.36 3.7,-8.67l0 -5424.79c0,-1.95 -0.3,-3.59 -0.81,-4.86 -0.59,-1.43 -1.46,-2.74 -2.54,-3.8 -0.21,0 -0.35,-0.14 -0.35,-0.35 -1.07,-1.07 -2.37,-1.95 -3.8,-2.54 -1.27,-0.51 -2.91,-0.81 -4.86,-0.81l-1304.41 0 0 221.67 888.78 0c26.35,0 51.69,5.35 74.95,15.02 23.94,9.96 45.62,24.58 63.83,42.7 0.22,0 0.47,0.25 0.47,0.47 18.14,18.21 32.8,39.89 42.8,63.89 9.68,23.27 15.05,48.65 15.05,75.03l0 4621.21c0,26.48 -5.36,51.93 -15.05,75.27 -10.06,24.19 -24.72,45.92 -42.8,64 -35.66,35.66 -84.98,57.83 -139.26,57.83l-3438.94 0c-26.42,0 -51.82,-5.36 -75.11,-15.05 -24.14,-10.06 -45.87,-24.7 -63.94,-42.78l-0.21 -0.21c-18.07,-18.07 -32.72,-39.81 -42.78,-63.94 -9.69,-23.29 -15.05,-48.69 -15.05,-75.11l0 -4621.21c0,-26.49 5.36,-51.94 15.05,-75.27 10.06,-24.19 24.7,-45.91 42.78,-63.99 35.67,-35.67 84.99,-57.84 139.27,-57.84l872.4 0 0 -221.67zm1455.17 1123.58c40.67,0 79.61,8.17 115.26,22.96 36.8,15.26 69.99,37.67 97.8,65.46 0.21,0 0.35,0.14 0.35,0.35 27.8,27.8 50.21,60.99 65.46,97.8 14.79,35.65 22.96,74.6 22.96,115.26 0,40.72 -8.17,79.74 -22.96,115.43 -15.44,37.09 -37.83,70.34 -65.46,97.98l-4.52 4.13c-27.56,26.48 -60.07,47.8 -95.95,62.32 -34.97,14.16 -73.12,21.97 -112.93,21.97 -40.72,0 -79.74,-8.17 -115.43,-22.96 -37.09,-15.44 -70.34,-37.83 -97.98,-65.46 -27.64,-27.64 -50.03,-60.89 -65.41,-98 -14.84,-35.67 -23.01,-74.69 -23.01,-115.41 0,-40.67 8.17,-79.61 22.96,-115.26 13.23,-31.89 31.82,-61.07 54.64,-86.39l0 -0.92 10.83 -10.83c27.64,-27.64 60.89,-50.03 98,-65.41 35.67,-14.84 74.69,-23.01 115.41,-23.01zm82.98 218.85c-10.82,-10.79 -23.72,-19.48 -37.98,-25.37 -13.65,-5.63 -28.84,-8.74 -44.99,-8.74 -16.09,0 -31.27,3.12 -44.92,8.78 -14.09,5.82 -26.97,14.58 -37.89,25.5l-5.22 5.23c-8.46,9.62 -15.38,20.63 -20.31,32.59 -5.64,13.65 -8.75,28.84 -8.75,44.99 0,16.09 3.12,31.27 8.78,44.92 5.82,14.09 14.57,26.97 25.5,37.89 10.92,10.93 23.8,19.68 37.89,25.5 13.65,5.65 28.83,8.78 44.92,8.78 15.66,0 30.43,-2.94 43.72,-8.25 13.7,-5.49 26.17,-13.52 36.78,-23.49l2.31 -2.54c10.92,-10.92 19.68,-23.8 25.5,-37.89 5.66,-13.65 8.78,-28.83 8.78,-44.92 0,-16.15 -3.11,-31.35 -8.74,-44.99 -5.89,-14.26 -14.58,-27.17 -25.37,-37.98zm-694.33 -524.73c40.67,0 79.61,8.17 115.26,22.96 36.8,15.26 69.99,37.67 97.8,65.46 0.21,0 0.35,0.14 0.35,0.35 27.8,27.81 50.2,61 65.46,97.8 14.79,35.65 22.96,74.6 22.96,115.26 0,40.72 -8.17,79.74 -22.96,115.43 -15.44,37.08 -37.83,70.33 -65.46,97.97l-4.52 4.13c-27.56,26.49 -60.07,47.8 -95.95,62.33 -34.97,14.16 -73.12,21.97 -112.93,21.97 -40.72,0 -79.74,-8.17 -115.43,-22.96 -37.08,-15.44 -70.33,-37.83 -97.97,-65.46 -27.64,-27.64 -50.03,-60.89 -65.41,-97.99 -14.84,-35.67 -23.01,-74.69 -23.01,-115.41 0,-40.67 8.17,-79.61 22.96,-115.26 13.23,-31.89 31.81,-61.07 54.64,-86.39l0 -0.92 10.83 -10.83c27.64,-27.64 60.89,-50.03 98,-65.41 35.67,-14.84 74.69,-23.01 115.41,-23.01zm82.98 218.85c-10.82,-10.79 -23.72,-19.48 -37.98,-25.36 -13.65,-5.64 -28.84,-8.75 -44.99,-8.75 -16.09,0 -31.27,3.12 -44.92,8.78 -14.09,5.82 -26.97,14.57 -37.89,25.5l-5.23 5.22c-8.46,9.63 -15.37,20.63 -20.31,32.59 -5.63,13.65 -8.74,28.84 -8.74,44.99 0,16.09 3.12,31.27 8.78,44.92 5.82,14.09 14.58,26.97 25.5,37.89 10.92,10.92 23.8,19.68 37.89,25.5 13.65,5.66 28.83,8.78 44.92,8.78 15.66,0 30.43,-2.94 43.72,-8.25 13.7,-5.49 26.17,-13.52 36.78,-23.49l2.3 -2.53c10.93,-10.93 19.68,-23.81 25.5,-37.89 5.65,-13.65 8.78,-28.83 8.78,-44.92 0,-16.15 -3.11,-31.34 -8.74,-44.99 -5.89,-14.27 -14.58,-27.17 -25.37,-37.99zm-697.06 88.06c40.67,0 79.61,8.17 115.26,22.96 36.8,15.26 69.99,37.67 97.8,65.47 0.21,0 0.35,0.13 0.35,0.34 27.8,27.81 50.21,61 65.46,97.8 14.79,35.65 22.96,74.6 22.96,115.27 0,40.72 -8.17,79.74 -22.96,115.43 -15.44,37.09 -37.83,70.33 -65.46,97.97l-4.52 4.13c-27.56,26.49 -60.07,47.8 -95.95,62.33 -34.97,14.16 -73.12,21.97 -112.93,21.97 -40.72,0 -79.74,-8.17 -115.43,-22.96 -37.09,-15.44 -70.34,-37.83 -97.98,-65.47 -27.64,-27.64 -50.03,-60.89 -65.41,-97.99 -14.84,-35.67 -23.01,-74.69 -23.01,-115.41 0,-40.67 8.17,-79.62 22.96,-115.27 13.23,-31.89 31.82,-61.07 54.64,-86.39l0 -0.92 10.83 -10.83c27.64,-27.64 60.89,-50.03 98,-65.41 35.67,-14.84 74.69,-23.01 115.41,-23.01zm82.98 218.85c-10.82,-10.79 -23.72,-19.48 -37.98,-25.37 -13.65,-5.63 -28.84,-8.74 -44.99,-8.74 -16.09,0 -31.27,3.12 -44.92,8.78 -14.09,5.82 -26.97,14.58 -37.89,25.5l-5.22 5.23c-8.46,9.62 -15.38,20.63 -20.31,32.59 -5.64,13.65 -8.75,28.84 -8.75,44.99 0,16.08 3.12,31.27 8.78,44.92 5.82,14.09 14.57,26.96 25.5,37.89 10.92,10.92 23.8,19.68 37.89,25.5 13.65,5.66 28.83,8.78 44.92,8.78 15.66,0 30.43,-2.94 43.72,-8.25 13.7,-5.49 26.17,-13.52 36.78,-23.49l2.3 -2.54c10.92,-10.93 19.68,-23.8 25.5,-37.89 5.66,-13.65 8.78,-28.83 8.78,-44.92 0,-16.15 -3.11,-31.35 -8.74,-44.99 -5.89,-14.26 -14.58,-27.17 -25.37,-37.98zm940.71 743.38c-16.54,-18.93 -37.3,-36.72 -61.64,-52.97 -24.74,-16.53 -53.36,-31.45 -85.2,-44.37l-34.51 -14.01 3.1 -7.44c-3.39,-3.52 -6.52,-7.31 -9.34,-11.33 -9.8,-13.99 -15.83,-30.87 -16.57,-49.07l-0.39 -6.61c0,-34.75 -5.94,-67.55 -16.7,-97.15 -11.13,-30.65 -27.37,-58.01 -47.41,-80.65 -18.96,-21.41 -41.52,-38.67 -66.48,-50.41 -23.37,-11.01 -49.07,-17.09 -76.04,-17.09 -26.96,0 -52.66,6.09 -76.03,17.09 -24.96,11.74 -47.53,29.01 -66.48,50.41 -20.05,22.65 -36.28,50.01 -47.41,80.65 -10.76,29.59 -16.7,62.4 -16.7,97.15 0.47,18.63 -4.72,36.97 -14.62,52.5 -10.03,15.71 -24.75,28.54 -43.07,35.95 -31.84,12.93 -60.47,27.86 -85.22,44.37 -24.32,16.24 -45.1,34.05 -61.62,52.97 -13.96,15.98 -24.83,32.89 -32.09,50.36 -6.61,15.93 -10.13,32.46 -10.13,49.31 0,27.9 9.93,55.37 27.86,81.15 20.26,29.14 50.38,56.07 87.97,79.32 42.7,26.43 94.5,47.85 152.68,62.59 56.52,14.31 118.96,22.24 184.87,22.24 65.92,0 128.35,-7.92 184.87,-22.24 58.18,-14.74 109.96,-36.16 152.7,-62.59 37.59,-23.25 67.7,-50.19 87.97,-79.32 17.93,-25.78 27.86,-53.26 27.86,-81.15 0,-16.84 -3.52,-33.37 -10.13,-49.3 -7.25,-17.48 -18.13,-34.39 -32.08,-50.37z"/>
 </g>
</svg>
