<?xml version="1.0" encoding="UTF-8"?>
<!DOCTYPE svg PUBLIC "-//W3C//DTD SVG 1.1//EN" "http://www.w3.org/Graphics/SVG/1.1/DTD/svg11.dtd">
<!-- Creator: CorelDRAW 2018 (64-Bit) -->
<svg xmlns="http://www.w3.org/2000/svg" xml:space="preserve" width="7.87402in" height="7.87402in" version="1.1" style="shape-rendering:geometricPrecision; text-rendering:geometricPrecision; image-rendering:optimizeQuality; fill-rule:evenodd; clip-rule:evenodd"
viewBox="0 0 7874.02 7874.02"
 xmlns:xlink="http://www.w3.org/1999/xlink">
 <g id="Layer_x0020_1">
    <path class="fil0" fill="#AD2A26" d="M1306.93 1806.31l293.84 0 0 -181.93 -146.92 -146.93 -146.93 146.93 0 181.93zm3369.17 2566.74c43.18,0 84.56,8.66 122.41,24.35 39.33,16.37 74.59,40.11 103.9,69.43 29.31,29.31 53.06,64.57 69.37,103.92 15.74,37.83 24.4,79.21 24.4,122.39 0,43.13 -8.66,84.43 -24.34,122.24 -14.03,33.82 -33.74,64.76 -57.94,91.61l0 0.98 -11.48 11.48c-29.31,29.31 -64.57,53.06 -103.92,69.37 -37.83,15.74 -79.21,24.4 -122.39,24.4 -43.13,0 -84.43,-8.66 -122.24,-24.34 -39.03,-16.19 -74.22,-39.95 -103.71,-69.43 -0.22,0 -0.37,-0.14 -0.37,-0.37 -29.48,-29.48 -53.24,-64.68 -69.43,-103.71 -15.69,-37.81 -24.35,-79.11 -24.35,-122.24 0,-43.19 8.66,-84.57 24.35,-122.42 16.37,-39.33 40.11,-74.59 69.43,-103.9l4.8 -4.38c29.22,-28.09 63.71,-50.69 101.76,-66.09 37.08,-15.02 77.54,-23.3 119.76,-23.3zm87.81 232.27c-11.58,-11.59 -25.24,-20.87 -40.18,-27.04 -14.47,-6 -30.57,-9.31 -47.63,-9.31 -16.61,0 -32.26,3.12 -46.37,8.75 -14.53,5.82 -27.76,14.34 -39.01,24.91l-2.44 2.69c-11.59,11.58 -20.87,25.24 -27.04,40.18 -6,14.47 -9.31,30.58 -9.31,47.64 0,17.13 3.3,33.24 9.27,47.71 6.24,15.13 15.46,28.81 26.9,40.28 11.47,11.44 25.15,20.66 40.28,26.9 14.47,5.98 30.59,9.28 47.72,9.28 17.06,0 33.16,-3.31 47.63,-9.31 14.94,-6.18 28.6,-15.46 40.18,-27.05l5.54 -5.54c8.97,-10.21 16.3,-21.88 21.54,-34.56 5.98,-14.47 9.28,-30.59 9.28,-47.71 0,-17.06 -3.31,-33.17 -9.31,-47.64 -6.18,-14.94 -15.46,-28.6 -27.05,-40.18zm-736.15 -556.65c43.18,0 84.56,8.67 122.41,24.35 39.33,16.37 74.59,40.12 103.9,69.43 29.31,29.31 53.06,64.57 69.37,103.93 15.74,37.83 24.4,79.21 24.4,122.39 0,43.13 -8.66,84.43 -24.34,122.24 -14.03,33.82 -33.74,64.76 -57.94,91.62l0 0.98 -11.48 11.48c-29.31,29.31 -64.57,53.06 -103.93,69.37 -37.83,15.74 -79.21,24.4 -122.39,24.4 -43.13,0 -84.43,-8.67 -122.24,-24.35 -39.03,-16.18 -74.22,-39.95 -103.71,-69.43 -0.22,0 -0.37,-0.15 -0.37,-0.37 -29.48,-29.49 -53.24,-64.69 -69.43,-103.71 -15.69,-37.8 -24.35,-79.11 -24.35,-122.24 0,-43.18 8.66,-84.56 24.35,-122.41 16.37,-39.33 40.11,-74.59 69.43,-103.9l4.8 -4.37c29.22,-28.09 63.7,-50.69 101.76,-66.09 37.08,-15.02 77.54,-23.3 119.76,-23.3zm87.81 232.27c-11.58,-11.58 -25.24,-20.87 -40.18,-27.04 -14.47,-6 -30.57,-9.31 -47.63,-9.31 -16.61,0 -32.26,3.12 -46.37,8.75 -14.53,5.82 -27.76,14.34 -39,24.91l-2.44 2.69c-11.58,11.59 -20.87,25.25 -27.04,40.19 -6,14.47 -9.31,30.57 -9.31,47.63 0,17.13 3.3,33.24 9.27,47.71 6.24,15.13 15.46,28.81 26.9,40.28 11.47,11.44 25.15,20.66 40.28,26.9 14.47,5.97 30.59,9.27 47.71,9.27 17.06,0 33.16,-3.31 47.63,-9.31 14.94,-6.17 28.6,-15.46 40.18,-27.04l5.54 -5.54c8.98,-10.2 16.3,-21.88 21.54,-34.56 5.98,-14.47 9.28,-30.59 9.28,-47.71 0,-17.06 -3.31,-33.16 -9.31,-47.63 -6.18,-14.94 -15.46,-28.6 -27.05,-40.19zm-739.05 93.2c43.18,0 84.56,8.67 122.41,24.35 39.33,16.37 74.59,40.12 103.9,69.43 29.31,29.31 53.06,64.57 69.37,103.92 15.74,37.83 24.4,79.21 24.4,122.39 0,43.13 -8.66,84.43 -24.34,122.24 -14.03,33.82 -33.74,64.76 -57.94,91.62l0 0.98 -11.48 11.48c-29.31,29.31 -64.57,53.06 -103.92,69.37 -37.83,15.74 -79.21,24.4 -122.39,24.4 -43.13,0 -84.43,-8.67 -122.24,-24.35 -39.03,-16.18 -74.22,-39.95 -103.71,-69.43 -0.22,0 -0.37,-0.15 -0.37,-0.37 -29.48,-29.49 -53.24,-64.69 -69.43,-103.71 -15.68,-37.81 -24.34,-79.11 -24.34,-122.24 0,-43.18 8.66,-84.56 24.34,-122.41 16.37,-39.33 40.12,-74.59 69.43,-103.9l4.8 -4.37c29.22,-28.09 63.71,-50.69 101.76,-66.09 37.08,-15.02 77.54,-23.3 119.76,-23.3zm87.81 232.27c-11.58,-11.58 -25.24,-20.87 -40.18,-27.04 -14.47,-6 -30.57,-9.31 -47.63,-9.31 -16.61,0 -32.27,3.12 -46.37,8.75 -14.53,5.82 -27.76,14.34 -39.01,24.91l-2.44 2.69c-11.59,11.59 -20.87,25.24 -27.04,40.19 -6,14.47 -9.31,30.57 -9.31,47.63 0,17.13 3.3,33.24 9.27,47.71 6.24,15.13 15.46,28.81 26.9,40.28 11.47,11.44 25.15,20.66 40.28,26.9 14.47,5.98 30.59,9.28 47.72,9.28 17.06,0 33.16,-3.31 47.63,-9.31 14.94,-6.17 28.6,-15.46 40.18,-27.04l5.54 -5.54c8.97,-10.2 16.3,-21.88 21.54,-34.56 5.98,-14.47 9.28,-30.59 9.28,-47.71 0,-17.06 -3.31,-33.17 -9.31,-47.63 -6.17,-14.94 -15.46,-28.6 -27.04,-40.19zm973.01 529.87c31.3,15.91 60.25,33.49 86.45,52.5 32.15,23.32 60.81,49.22 85.28,77.23 30.06,34.42 53.63,71.8 69.58,111.44 15.76,39.18 24.16,80.34 24.16,122.82 0,66.87 -20.46,129.92 -57.5,186.76 -37.36,57.32 -91.66,108.01 -158.7,149.49 -61.21,37.87 -133.69,68.32 -213.61,89 -76.73,19.85 -160.2,30.82 -246.93,30.82 -86.73,0 -170.2,-10.98 -246.93,-30.82 -79.92,-20.67 -152.39,-51.12 -213.6,-89 -67.04,-41.48 -121.33,-92.17 -158.7,-149.49 -37.04,-56.83 -57.5,-119.88 -57.5,-186.76 0,-42.48 8.39,-83.65 24.16,-122.82 15.95,-39.64 39.53,-77.02 69.59,-111.44 24.45,-28 53.1,-53.9 85.25,-77.22 26.2,-19.02 55.15,-36.59 86.46,-52.51 5.53,-44.91 17.05,-87.85 33.6,-127.69 19.88,-47.89 47.24,-91.48 80.37,-128.92 38.45,-43.44 84.45,-78.41 135.56,-102.22 49.74,-23.17 104.38,-35.96 161.73,-35.96 57.35,0 111.98,12.8 161.74,35.96 51.11,23.81 97.11,58.79 135.57,102.22 33.13,37.42 60.48,81.02 80.36,128.91 16.55,39.85 28.07,82.78 33.6,127.7zm24.79 258.3c-17.54,-20.07 -39.56,-38.94 -65.37,-56.18 -26.23,-17.53 -56.59,-33.35 -90.35,-47.06l-36.61 -14.85 3.3 -7.91c-3.6,-3.72 -6.92,-7.74 -9.91,-12.01 -10.39,-14.83 -16.79,-32.75 -17.57,-52.03l-0.41 -7.01c0,-36.84 -6.3,-71.64 -17.71,-103.02 -11.81,-32.5 -29.02,-61.52 -50.28,-85.53 -20.1,-22.7 -44.03,-41 -70.5,-53.46 -24.79,-11.67 -52.04,-18.13 -80.64,-18.13 -28.59,0 -55.84,6.45 -80.63,18.13 -26.48,12.46 -50.4,30.76 -70.5,53.46 -21.26,24.02 -38.47,53.04 -50.28,85.53 -11.42,31.39 -17.72,66.19 -17.72,103.02 0.5,19.75 -5,39.19 -15.5,55.68 -10.63,16.65 -26.23,30.26 -45.68,38.13 -33.76,13.7 -64.13,29.54 -90.37,47.06 -25.79,17.22 -47.82,36.11 -65.35,56.18 -14.81,16.94 -26.33,34.88 -34.03,53.41 -7.01,16.89 -10.74,34.43 -10.74,52.29 0,29.59 10.53,58.72 29.54,86.06 21.49,30.9 53.43,59.46 93.3,84.12 45.29,28.03 100.22,50.74 161.92,66.38 59.94,15.18 126.15,23.58 196.05,23.58 69.89,0 136.11,-8.4 196.05,-23.58 61.7,-15.64 116.62,-38.35 161.93,-66.38 39.86,-24.66 71.8,-53.22 93.29,-84.12 19.02,-27.34 29.54,-56.48 29.54,-86.06 0,-17.86 -3.73,-35.39 -10.74,-52.28 -7.69,-18.54 -19.22,-36.48 -34.02,-53.42zm-1694.52 -1757.86l2517.37 0 0 -74.89c0,-46.77 -9.34,-91.35 -26.24,-131.94 -17.57,-42.25 -43.45,-80.46 -75.55,-112.56 -62.8,-62.8 -149.37,-101.79 -244.5,-101.79l-1824.78 0c-46.77,0 -91.35,9.34 -131.94,26.24 -42.25,17.57 -80.46,43.45 -112.56,75.54 -62.8,62.8 -101.79,149.37 -101.79,244.51l0 74.89zm2517.37 2781.86l-2517.37 0 0 84.67c0,46.77 9.34,91.35 26.24,131.94 17.57,42.25 43.45,80.46 75.55,112.56 62.8,62.8 149.37,101.79 244.51,101.79l1824.78 0c46.77,0 91.35,-9.34 131.94,-26.24 42.25,-17.57 80.47,-43.45 112.56,-75.54 62.8,-62.8 101.79,-149.37 101.79,-244.51l0 -84.67zm0 -2585.94l-2517.37 0 0 2390.02 2517.37 0 0 -2390.02zm-2027.93 -1900.29l1538.51 0c43.08,0 84.39,8.7 122.17,24.4 39.23,16.31 74.52,40.13 103.96,69.56 57.95,57.96 93.96,138.02 93.96,226.13l0 250.13c0,43.08 -8.7,84.39 -24.4,122.17 -16.3,39.22 -40.13,74.52 -69.56,103.95 -22.78,22.78 -49.33,42.31 -78.73,57.67 -18.94,9.89 -38.88,17.95 -59.56,23.93l0 209.34 55.3 0c73.02,0 142.94,14.7 206.88,41.28 66.39,27.6 126.18,67.98 176.12,117.93 98.22,98.21 159.21,233.81 159.21,383l0 2941.42c0,73.02 -14.7,142.94 -41.28,206.88 -27.6,66.39 -67.98,126.18 -117.93,176.13 -98.21,98.21 -233.81,159.21 -383,159.21l-1824.78 0c-73.03,0 -142.94,-14.7 -206.88,-41.28 -66.4,-27.6 -126.18,-67.98 -176.13,-117.93 -98.21,-98.22 -159.21,-233.81 -159.21,-383l0 -2941.42c0,-73.02 14.7,-142.94 41.28,-206.88 27.6,-66.39 67.98,-126.18 117.93,-176.13 98.21,-98.21 233.81,-159.21 383,-159.21l55.3 0 0 -209.35c-20.68,-5.96 -40.63,-14.03 -59.56,-23.93 -29.4,-15.35 -55.93,-34.86 -78.72,-57.65 -57.95,-57.95 -93.96,-138.02 -93.96,-226.13l0 -250.13c0,-43.08 8.7,-84.39 24.4,-122.17 16.3,-39.23 40.11,-74.51 69.56,-103.96 57.95,-57.95 138.02,-93.96 226.13,-93.96zm1538.51 195.91l-1538.51 0c-16.8,0 -32.78,3.35 -47.24,9.37 -15.08,6.27 -28.82,15.6 -40.39,27.18 -11.58,11.58 -20.9,25.31 -27.18,40.39 -6.03,14.47 -9.36,30.44 -9.36,47.23l0 250.13c0,16.8 3.34,32.78 9.36,47.24 6.28,15.08 15.61,28.82 27.18,40.39 11.57,11.57 25.31,20.9 40.39,27.18 14.46,6.02 30.44,9.36 47.24,9.36l1538.51 0c16.8,0 32.76,-3.33 47.24,-9.36 15.08,-6.28 28.81,-15.59 40.39,-27.18 11.57,-11.57 20.9,-25.31 27.18,-40.39 6.02,-14.46 9.36,-30.44 9.36,-47.24l0 -250.13c0,-16.79 -3.33,-32.76 -9.36,-47.23 -6.28,-15.08 -15.6,-28.82 -27.18,-40.39 -11.57,-11.57 -25.31,-20.91 -40.39,-27.18 -14.47,-6.03 -30.44,-9.37 -47.24,-9.37zm-108.09 695.46l-1322.35 0 0 195.89 1322.35 0 0 -195.89zm-3043.62 1375.35l184.48 0 0 -179.77 -184.48 0c-26.93,0 -51.39,-10.98 -69.11,-28.7l-0.15 -0.15c-17.71,-17.72 -28.7,-42.18 -28.7,-69.11l0 -68.57c0,-26.93 10.98,-51.39 28.7,-69.11l0 -0.15c17.73,-17.72 42.23,-28.7 69.26,-28.7l184.48 0 0 -179.77 -184.48 0c-26.93,0 -51.39,-10.98 -69.11,-28.7l-0.15 -0.14c-17.71,-17.73 -28.7,-42.18 -28.7,-69.11l0 -68.57c0,-26.93 10.98,-51.39 28.7,-69.12l0 -0.14c17.73,-17.73 42.23,-28.7 69.26,-28.7l184.48 0 0 -179.77 -184.48 0c-26.93,0 -51.39,-10.98 -69.11,-28.7l-0.15 -0.15c-17.71,-17.72 -28.7,-42.18 -28.7,-69.11l0 -68.57c0,-26.93 10.98,-51.39 28.7,-69.11l0 -0.15c17.73,-17.72 42.23,-28.7 69.26,-28.7l184.48 0 0 -179.77 -184.48 0c-26.93,0 -51.39,-10.98 -69.11,-28.7l-0.15 -0.15c-17.71,-17.72 -28.7,-42.18 -28.7,-69.11l0 -68.57c0,-26.93 10.98,-51.39 28.7,-69.11l0 -0.15c17.73,-17.72 42.23,-28.7 69.26,-28.7l184.48 0 0 -295.65c0,-16.79 -3.33,-32.76 -9.36,-47.23 -6.28,-15.08 -15.6,-28.82 -27.18,-40.39 -11.57,-11.57 -25.31,-20.91 -40.39,-27.18 -14.47,-6.03 -30.44,-9.37 -47.24,-9.37l-500.64 0c-16.79,0 -32.78,3.35 -47.24,9.37 -15.08,6.27 -28.82,15.6 -40.39,27.18 -11.58,11.58 -20.9,25.31 -27.18,40.39 -6.03,14.47 -9.36,30.44 -9.36,47.23l0 2697.91 748.98 0 0 -360.75 -184.48 0c-26.93,0 -51.39,-10.98 -69.11,-28.7l-0.15 -0.15c-17.71,-17.72 -28.7,-42.18 -28.7,-69.11l0 -68.57c0,-26.93 10.98,-51.39 28.7,-69.11l0 -0.15c17.73,-17.72 42.23,-28.7 69.26,-28.7zm-208.74 -3733.61l37.45 0c27.03,0 51.53,10.97 69.26,28.7 17.73,17.72 28.7,42.22 28.7,69.26l0 753.74 196.75 196.75c9.11,9.06 16.5,19.83 21.56,31.72l0 0.15c5.04,11.9 7.85,24.8 7.85,38.07l0 236.24c19.94,6.09 39.11,14.08 57.31,23.79 28.43,15.16 54.15,34.24 76.3,56.39 57.95,57.95 93.96,138.02 93.96,226.12l0 3120.59c18.98,6.98 37.23,15.57 54.57,25.61 26.56,15.39 50.79,34.03 72.07,55.31 62.94,62.94 102.05,149.89 102.05,245.57 0,46.79 -9.44,91.65 -26.49,132.67 -17.72,42.61 -43.57,80.92 -75.56,112.91 -62.94,62.94 -149.89,102.04 -245.57,102.04l-118.43 0 0 495.19c19.78,5.96 38.67,13.77 56.43,23.21 27.92,14.84 53.39,33.75 75.54,55.9 29,29 52.48,63.76 68.54,102.44 15.48,37.25 24.05,77.94 24.05,120.39 0,42.43 -8.57,83.15 -24.05,120.41 -16.07,38.66 -39.53,73.43 -68.54,102.43l-4.81 4.38c-28.8,27.67 -62.8,49.99 -100.28,65.2 -36.48,14.81 -76.27,23 -117.74,23l-484.36 0c-42.38,0 -83.02,-8.56 -120.22,-24.04 -38.45,-16 -73.17,-39.47 -102.24,-68.54 -0.22,0 -0.37,-0.14 -0.37,-0.37 -29.07,-29.07 -52.53,-63.8 -68.54,-102.24 -15.48,-37.2 -24.05,-77.83 -24.05,-120.22 0,-42.38 8.57,-83.02 24.05,-120.22 13.89,-33.4 33.31,-63.9 57.05,-90.28l0 -0.85 11.48 -11.48c22.15,-22.15 47.61,-41.06 75.54,-55.9 17.76,-9.44 36.65,-17.25 56.43,-23.21l0 -495.19 -118.44 0c-46.79,0 -91.63,-9.44 -132.68,-26.5 -42.59,-17.7 -80.91,-43.56 -112.89,-75.54 -62.94,-62.94 -102.05,-149.89 -102.05,-245.57 0,-46.79 9.44,-91.65 26.49,-132.68 17.72,-42.6 43.57,-80.92 75.56,-112.91 35.44,-35.44 78.57,-63.34 126.65,-80.94l0 -3120.57c0,-43.08 8.69,-84.39 24.4,-122.17 16.31,-39.23 40.12,-74.51 69.56,-103.95 22.15,-22.15 47.87,-41.23 76.3,-56.39 18.2,-9.7 37.37,-17.7 57.31,-23.79l0 -236.24 0.16 0c0.01,-12.78 2.5,-25.52 7.39,-37.37 4.88,-11.78 11.96,-22.68 21.16,-31.87l197.44 -197.44 0 -753.75c0,-26.93 10.98,-51.39 28.7,-69.11l0 -0.14c17.73,-17.73 42.23,-28.7 69.26,-28.7zm393.22 4554.76l-748.98 0 0 205.64 748.98 0 0 -205.64zm-139.41 1578.52l-477.26 0c-16.17,0 -31.54,3.21 -45.46,9.01 -14.52,6.04 -27.72,15 -38.87,26.15l-5.39 5.39c-8.62,9.83 -15.7,21.1 -20.8,33.39 -5.78,13.93 -8.97,29.32 -8.97,45.56 0,16.24 3.2,31.64 8.97,45.56 6.1,14.69 15.02,27.92 26.01,38.96 11.04,11 24.27,19.91 38.95,26.01 13.93,5.78 29.32,8.98 45.56,8.98l484.36 0c15.82,0 30.81,-3.01 44.37,-8.45 13.93,-5.6 26.66,-13.82 37.52,-24.02l2.44 -2.69c11.15,-11.15 20.11,-24.35 26.16,-38.87 5.8,-13.92 9.01,-29.29 9.01,-45.46 0,-16.18 -3.21,-31.55 -9.01,-45.47 -6.04,-14.52 -15,-27.72 -26.16,-38.87 -11.15,-11.15 -24.35,-20.11 -38.87,-26.15 -13.92,-5.8 -29.29,-9.01 -45.46,-9.01l-7.09 0zm-97.96 -677.63l-274.25 0 0 481.72 274.25 0 0 -481.72zm314.35 -499.33l-902.95 0c-20.52,0 -40.04,4.09 -57.74,11.45 -18.45,7.67 -35.21,19.05 -49.33,33.17 -27.51,27.51 -44.63,65.45 -44.63,107.08 0,20.54 4.09,40.05 11.45,57.75 7.68,18.45 19.05,35.2 33.18,49.33 27.51,27.51 65.45,44.63 107.07,44.63l902.95 0c20.52,0 40.04,-4.09 57.74,-11.45 18.45,-7.67 35.21,-19.05 49.33,-33.17 27.51,-27.51 44.63,-65.45 44.63,-107.08 0,-20.51 -4.09,-40.05 -11.45,-57.75 -7.67,-18.45 -19.05,-35.21 -33.17,-49.33 -27.51,-27.51 -65.45,-44.63 -107.07,-44.63z"/>
 </g>
</svg>
